SplineFontDB: 3.2
FontName: KongtextRegular
FullName: Kongtext Regular
FamilyName: Kongtext
Weight: Book
Copyright: TrueType conversion (c) 2003 codeman38.
Version: 1.01
ItalicAngle: 0
UnderlinePosition: 0
UnderlineWidth: 0
Ascent: 896
Descent: 128
InvalidEm: 0
sfntRevision: 0x0001028f
LayerCount: 2
Layer: 0 1 "Back" 1
Layer: 1 1 "Fore" 0
XUID: [1021 316 2131805191 12535375]
StyleMap: 0x0040
FSType: 8
OS2Version: 1
OS2_WeightWidthSlopeOnly: 0
OS2_UseTypoMetrics: 0
CreationTime: 1075792340
ModificationTime: 1697223403
PfmFamily: 17
TTFWeight: 400
TTFWidth: 5
LineGap: 92
VLineGap: 0
Panose: 2 0 5 9 0 0 0 0 0 0
OS2TypoAscent: 896
OS2TypoAOffset: 0
OS2TypoDescent: -128
OS2TypoDOffset: 0
OS2TypoLinegap: 92
OS2WinAscent: 896
OS2WinAOffset: 0
OS2WinDescent: 128
OS2WinDOffset: 0
HheadAscent: 896
HheadAOffset: 0
HheadDescent: -128
HheadDOffset: 0
OS2SubXSize: 204
OS2SubYSize: 204
OS2SubXOff: 0
OS2SubYOff: 204
OS2SupXSize: 204
OS2SupYSize: 204
OS2SupXOff: 0
OS2SupYOff: 204
OS2StrikeYSize: 51
OS2StrikeYPos: 265
OS2Vendor: 'PfEd'
OS2CodePages: 00000001.c0d40000
OS2UnicodeRanges: 8000002f.0000000a.00000000.00000000
Lookup: 4 0 0 "'frac' Diagonal Fractions lookup 0" { "'frac' Diagonal Fractions lookup 0 subtable"  } ['frac' ('DFLT' <'dflt' > ) ]
DEI: 91125
ShortTable: maxp 16
  1
  0
  219
  42
  4
  0
  0
  2
  0
  1
  1
  0
  64
  0
  0
  0
EndShort
LangName: 1033 "TrueType conversion +AKkA 2003 codeman38." "" "" "PfaEdit : Kongtext Regular : 30-6-2003"
LangName: 1024 "TrueType conversion +AKkA 2003 codeman38." "Kongtext" "Regular" "PfaEdit : Kongtext Regular : 30-6-2003" "Kongtext Regular" "Version 1.0 " "KongtextRegular"
GaspTable: 1 65535 2 0
Encoding: UnicodeBmp
UnicodeInterp: none
NameList: AGL For New Fonts
DisplaySize: -48
AntiAlias: 1
FitToEm: 0
WinInfo: 0 25 20
BeginChars: 65537 219

StartChar: .notdef
Encoding: 65536 -1 0
Width: 1024
GlyphClass: 2
Flags: W
LayerCount: 2
Fore
SplineSet
0 0 m 1,0,-1
 0 717 l 1,1,-1
 819 717 l 1,2,-1
 819 0 l 1,3,-1
 0 0 l 1,0,-1
EndSplineSet
EndChar

StartChar: exclam
Encoding: 33 33 4
Width: 1024
GlyphClass: 2
Flags: W
LayerCount: 2
Fore
SplineSet
384 768 m 1,0,-1
 640 768 l 1,1,-1
 640 256 l 1,2,-1
 384 256 l 1,3,-1
 384 768 l 1,0,-1
384 128 m 1,4,-1
 640 128 l 1,5,-1
 640 0 l 1,6,-1
 384 0 l 1,7,-1
 384 128 l 1,4,-1
EndSplineSet
EndChar

StartChar: quotedbl
Encoding: 34 34 5
Width: 1024
GlyphClass: 2
Flags: W
LayerCount: 2
Fore
SplineSet
256 768 m 1,0,-1
 384 768 l 1,1,-1
 384 384 l 1,2,-1
 256 384 l 1,3,-1
 256 768 l 1,0,-1
640 768 m 1,4,-1
 768 768 l 1,5,-1
 768 384 l 1,6,-1
 640 384 l 1,7,-1
 640 768 l 1,4,-1
EndSplineSet
EndChar

StartChar: numbersign
Encoding: 35 35 6
Width: 1024
GlyphClass: 2
Flags: W
LayerCount: 2
Fore
SplineSet
256 768 m 1,0,-1
 384 768 l 1,1,-1
 384 640 l 1,2,-1
 640 640 l 1,3,-1
 640 768 l 1,4,-1
 768 768 l 1,5,-1
 768 640 l 1,6,-1
 896 640 l 1,7,-1
 896 512 l 1,8,-1
 768 512 l 1,9,-1
 768 384 l 1,10,-1
 896 384 l 1,11,-1
 896 256 l 1,12,-1
 768 256 l 1,13,-1
 768 128 l 1,14,-1
 640 128 l 1,15,-1
 640 256 l 1,16,-1
 384 256 l 1,17,-1
 384 128 l 1,18,-1
 256 128 l 1,19,-1
 256 256 l 1,20,-1
 128 256 l 1,21,-1
 128 384 l 1,22,-1
 256 384 l 1,23,-1
 256 512 l 1,24,-1
 128 512 l 1,25,-1
 128 640 l 1,26,-1
 256 640 l 1,27,-1
 256 768 l 1,0,-1
384 512 m 1,28,-1
 384 384 l 1,29,-1
 640 384 l 1,30,-1
 640 512 l 1,31,-1
 384 512 l 1,28,-1
EndSplineSet
EndChar

StartChar: dollar
Encoding: 36 36 7
Width: 1024
GlyphClass: 2
Flags: W
LayerCount: 2
Fore
SplineSet
384 896 m 1,0,-1
 640 896 l 1,1,-1
 640 768 l 1,2,-1
 896 768 l 1,3,-1
 896 640 l 1,4,-1
 256 640 l 1,5,-1
 256 512 l 1,6,-1
 768 512 l 1,7,-1
 768 384 l 1,8,-1
 896 384 l 1,9,-1
 896 256 l 1,10,-1
 768 256 l 1,11,-1
 768 128 l 1,12,-1
 640 128 l 1,13,-1
 640 0 l 1,14,-1
 384 0 l 1,15,-1
 384 128 l 1,16,-1
 128 128 l 1,17,-1
 128 256 l 1,18,-1
 768 256 l 1,19,-1
 768 384 l 1,20,-1
 256 384 l 1,21,-1
 256 512 l 1,22,-1
 128 512 l 1,23,-1
 128 640 l 1,24,-1
 256 640 l 1,25,-1
 256 768 l 1,26,-1
 384 768 l 1,27,-1
 384 896 l 1,0,-1
EndSplineSet
EndChar

StartChar: percent
Encoding: 37 37 8
Width: 1024
GlyphClass: 2
Flags: W
LayerCount: 2
Fore
SplineSet
128 896 m 1,0,-1
 384 896 l 1,1,-1
 384 640 l 1,2,-1
 128 640 l 1,3,-1
 128 896 l 1,0,-1
768 896 m 1,4,-1
 896 896 l 1,5,-1
 896 640 l 1,6,-1
 768 640 l 1,7,-1
 768 512 l 1,8,-1
 640 512 l 1,9,-1
 640 384 l 1,10,-1
 512 384 l 1,11,-1
 512 256 l 1,12,-1
 384 256 l 1,13,-1
 384 128 l 1,14,-1
 256 128 l 1,15,-1
 256 0 l 1,16,-1
 0 0 l 1,17,-1
 0 128 l 1,18,-1
 128 128 l 1,19,-1
 128 256 l 1,20,-1
 256 256 l 1,21,-1
 256 384 l 1,22,-1
 384 384 l 1,23,-1
 384 512 l 1,24,-1
 512 512 l 1,25,-1
 512 640 l 1,26,-1
 640 640 l 1,27,-1
 640 768 l 1,28,-1
 768 768 l 1,29,-1
 768 896 l 1,4,-1
640 256 m 1,30,-1
 896 256 l 1,31,-1
 896 0 l 1,32,-1
 640 0 l 1,33,-1
 640 256 l 1,30,-1
EndSplineSet
EndChar

StartChar: ampersand
Encoding: 38 38 9
Width: 1024
GlyphClass: 2
Flags: W
LayerCount: 2
Fore
SplineSet
256 768 m 1,0,-1
 640 768 l 1,1,-1
 640 640 l 1,2,-1
 768 640 l 1,3,-1
 768 512 l 1,4,-1
 1024 512 l 1,5,-1
 1024 384 l 1,6,-1
 896 384 l 1,7,-1
 896 128 l 1,8,-1
 1024 128 l 1,9,-1
 1024 0 l 1,10,-1
 768 0 l 1,11,-1
 768 128 l 1,12,-1
 640 128 l 1,13,-1
 640 0 l 1,14,-1
 128 0 l 1,15,-1
 128 128 l 1,16,-1
 0 128 l 1,17,-1
 0 256 l 1,18,-1
 128 256 l 1,19,-1
 128 384 l 1,20,-1
 256 384 l 1,21,-1
 256 512 l 1,22,-1
 128 512 l 1,23,-1
 128 640 l 1,24,-1
 256 640 l 1,25,-1
 256 768 l 1,0,-1
384 640 m 1,26,-1
 384 512 l 1,27,-1
 512 512 l 1,28,-1
 512 640 l 1,29,-1
 384 640 l 1,26,-1
640 512 m 1,30,-1
 640 384 l 1,31,-1
 768 384 l 1,32,-1
 768 512 l 1,33,-1
 640 512 l 1,30,-1
384 384 m 1,34,-1
 384 256 l 1,35,-1
 256 256 l 1,36,-1
 256 128 l 1,37,-1
 640 128 l 1,38,-1
 640 256 l 1,39,-1
 512 256 l 1,40,-1
 512 384 l 1,41,-1
 384 384 l 1,34,-1
EndSplineSet
EndChar

StartChar: quotesingle
Encoding: 39 39 10
Width: 1024
GlyphClass: 2
Flags: W
LayerCount: 2
Fore
SplineSet
512 768 m 1,0,-1
 768 768 l 1,1,-1
 768 512 l 1,2,-1
 640 512 l 1,3,-1
 640 384 l 1,4,-1
 384 384 l 1,5,-1
 384 512 l 1,6,-1
 512 512 l 1,7,-1
 512 768 l 1,0,-1
EndSplineSet
EndChar

StartChar: parenleft
Encoding: 40 40 11
Width: 1024
GlyphClass: 2
Flags: W
LayerCount: 2
Fore
SplineSet
512 768 m 1,0,-1
 768 768 l 1,1,-1
 768 640 l 1,2,-1
 640 640 l 1,3,-1
 640 128 l 1,4,-1
 768 128 l 1,5,-1
 768 0 l 1,6,-1
 512 0 l 1,7,-1
 512 128 l 1,8,-1
 384 128 l 1,9,-1
 384 640 l 1,10,-1
 512 640 l 1,11,-1
 512 768 l 1,0,-1
EndSplineSet
EndChar

StartChar: parenright
Encoding: 41 41 12
Width: 1024
GlyphClass: 2
Flags: W
LayerCount: 2
Fore
SplineSet
384 768 m 1,0,-1
 640 768 l 1,1,-1
 640 640 l 1,2,-1
 768 640 l 1,3,-1
 768 128 l 1,4,-1
 640 128 l 1,5,-1
 640 0 l 1,6,-1
 384 0 l 1,7,-1
 384 128 l 1,8,-1
 512 128 l 1,9,-1
 512 640 l 1,10,-1
 384 640 l 1,11,-1
 384 768 l 1,0,-1
EndSplineSet
EndChar

StartChar: asterisk
Encoding: 42 42 13
Width: 1024
GlyphClass: 2
Flags: W
LayerCount: 2
Fore
SplineSet
128 768 m 1,0,-1
 384 768 l 1,1,-1
 384 640 l 1,2,-1
 512 640 l 1,3,-1
 512 768 l 1,4,-1
 768 768 l 1,5,-1
 768 512 l 1,6,-1
 640 512 l 1,7,-1
 640 384 l 1,8,-1
 768 384 l 1,9,-1
 768 128 l 1,10,-1
 512 128 l 1,11,-1
 512 256 l 1,12,-1
 384 256 l 1,13,-1
 384 128 l 1,14,-1
 128 128 l 1,15,-1
 128 384 l 1,16,-1
 256 384 l 1,17,-1
 256 512 l 1,18,-1
 128 512 l 1,19,-1
 128 768 l 1,0,-1
EndSplineSet
EndChar

StartChar: plus
Encoding: 43 43 14
Width: 1024
GlyphClass: 2
Flags: W
LayerCount: 2
Fore
SplineSet
384 768 m 1,0,-1
 640 768 l 1,1,-1
 640 512 l 1,2,-1
 896 512 l 1,3,-1
 896 384 l 1,4,-1
 640 384 l 1,5,-1
 640 128 l 1,6,-1
 384 128 l 1,7,-1
 384 384 l 1,8,-1
 128 384 l 1,9,-1
 128 512 l 1,10,-1
 384 512 l 1,11,-1
 384 768 l 1,0,-1
EndSplineSet
EndChar

StartChar: comma
Encoding: 44 44 15
Width: 1024
GlyphClass: 2
Flags: W
LayerCount: 2
Fore
SplineSet
512 384 m 1,0,-1
 768 384 l 1,1,-1
 768 128 l 1,2,-1
 640 128 l 1,3,-1
 640 0 l 1,4,-1
 384 0 l 1,5,-1
 384 128 l 1,6,-1
 512 128 l 1,7,-1
 512 384 l 1,0,-1
EndSplineSet
EndChar

StartChar: hyphen
Encoding: 45 45 16
Width: 1024
GlyphClass: 2
Flags: W
LayerCount: 2
Fore
SplineSet
128 512 m 1,0,-1
 896 512 l 1,1,-1
 896 384 l 1,2,-1
 128 384 l 1,3,-1
 128 512 l 1,0,-1
EndSplineSet
EndChar

StartChar: period
Encoding: 46 46 17
Width: 1024
GlyphClass: 2
Flags: W
LayerCount: 2
Fore
SplineSet
384 256 m 1,0,-1
 640 256 l 1,1,-1
 640 0 l 1,2,-1
 384 0 l 1,3,-1
 384 256 l 1,0,-1
EndSplineSet
EndChar

StartChar: slash
Encoding: 47 47 18
Width: 1024
GlyphClass: 2
Flags: W
LayerCount: 2
Fore
SplineSet
512 768 m 1,0,-1
 768 768 l 1,1,-1
 768 640 l 1,2,-1
 640 640 l 1,3,-1
 640 512 l 1,4,-1
 512 512 l 1,5,-1
 512 384 l 1,6,-1
 384 384 l 1,7,-1
 384 256 l 1,8,-1
 256 256 l 1,9,-1
 256 128 l 1,10,-1
 128 128 l 1,11,-1
 128 384 l 1,12,-1
 256 384 l 1,13,-1
 256 512 l 1,14,-1
 384 512 l 1,15,-1
 384 640 l 1,16,-1
 512 640 l 1,17,-1
 512 768 l 1,0,-1
EndSplineSet
EndChar

StartChar: zero
Encoding: 48 48 19
Width: 1024
GlyphClass: 2
Flags: W
LayerCount: 2
Fore
SplineSet
256 768 m 1,0,-1
 768 768 l 1,1,-1
 768 640 l 1,2,-1
 896 640 l 1,3,-1
 896 128 l 1,4,-1
 768 128 l 1,5,-1
 768 0 l 1,6,-1
 256 0 l 1,7,-1
 256 128 l 1,8,-1
 128 128 l 1,9,-1
 128 640 l 1,10,-1
 256 640 l 1,11,-1
 256 768 l 1,0,-1
384 640 m 1,12,-1
 384 384 l 1,13,-1
 512 384 l 1,14,-1
 512 256 l 1,15,-1
 384 256 l 1,16,-1
 384 128 l 1,17,-1
 640 128 l 1,18,-1
 640 384 l 1,19,-1
 512 384 l 1,20,-1
 512 512 l 1,21,-1
 640 512 l 1,22,-1
 640 640 l 1,23,-1
 384 640 l 1,12,-1
EndSplineSet
EndChar

StartChar: one
Encoding: 49 49 20
Width: 1024
GlyphClass: 2
Flags: W
LayerCount: 2
Fore
SplineSet
384 768 m 1,0,-1
 640 768 l 1,1,-1
 640 128 l 1,2,-1
 768 128 l 1,3,-1
 768 0 l 1,4,-1
 256 0 l 1,5,-1
 256 128 l 1,6,-1
 384 128 l 1,7,-1
 384 512 l 1,8,-1
 256 512 l 1,9,-1
 256 640 l 1,10,-1
 384 640 l 1,11,-1
 384 768 l 1,0,-1
EndSplineSet
EndChar

StartChar: two
Encoding: 50 50 21
Width: 1024
GlyphClass: 2
Flags: W
LayerCount: 2
Fore
SplineSet
256 768 m 1,0,-1
 768 768 l 1,1,-1
 768 640 l 1,2,-1
 896 640 l 1,3,-1
 896 384 l 1,4,-1
 768 384 l 1,5,-1
 768 256 l 1,6,-1
 384 256 l 1,7,-1
 384 128 l 1,8,-1
 896 128 l 1,9,-1
 896 0 l 1,10,-1
 128 0 l 1,11,-1
 128 256 l 1,12,-1
 256 256 l 1,13,-1
 256 384 l 1,14,-1
 640 384 l 1,15,-1
 640 640 l 1,16,-1
 384 640 l 1,17,-1
 384 512 l 1,18,-1
 128 512 l 1,19,-1
 128 640 l 1,20,-1
 256 640 l 1,21,-1
 256 768 l 1,0,-1
EndSplineSet
EndChar

StartChar: three
Encoding: 51 51 22
Width: 1024
GlyphClass: 2
Flags: W
LayerCount: 2
Fore
SplineSet
256 768 m 1,0,-1
 768 768 l 1,1,-1
 768 640 l 1,2,-1
 896 640 l 1,3,-1
 896 512 l 1,4,-1
 768 512 l 1,5,-1
 768 384 l 1,6,-1
 896 384 l 1,7,-1
 896 128 l 1,8,-1
 768 128 l 1,9,-1
 768 0 l 1,10,-1
 256 0 l 1,11,-1
 256 128 l 1,12,-1
 128 128 l 1,13,-1
 128 256 l 1,14,-1
 384 256 l 1,15,-1
 384 128 l 1,16,-1
 640 128 l 1,17,-1
 640 384 l 1,18,-1
 512 384 l 1,19,-1
 512 512 l 1,20,-1
 640 512 l 1,21,-1
 640 640 l 1,22,-1
 384 640 l 1,23,-1
 384 512 l 1,24,-1
 128 512 l 1,25,-1
 128 640 l 1,26,-1
 256 640 l 1,27,-1
 256 768 l 1,0,-1
EndSplineSet
EndChar

StartChar: four
Encoding: 52 52 23
Width: 1024
GlyphClass: 2
Flags: W
LayerCount: 2
Fore
SplineSet
128 768 m 1,0,-1
 384 768 l 1,1,-1
 384 384 l 1,2,-1
 512 384 l 1,3,-1
 512 640 l 1,4,-1
 768 640 l 1,5,-1
 768 384 l 1,6,-1
 896 384 l 1,7,-1
 896 256 l 1,8,-1
 768 256 l 1,9,-1
 768 0 l 1,10,-1
 512 0 l 1,11,-1
 512 256 l 1,12,-1
 128 256 l 1,13,-1
 128 768 l 1,0,-1
EndSplineSet
EndChar

StartChar: five
Encoding: 53 53 24
Width: 1024
GlyphClass: 2
Flags: W
LayerCount: 2
Fore
SplineSet
128 768 m 1,0,-1
 896 768 l 1,1,-1
 896 640 l 1,2,-1
 256 640 l 1,3,-1
 256 512 l 1,4,-1
 768 512 l 1,5,-1
 768 384 l 1,6,-1
 896 384 l 1,7,-1
 896 128 l 1,8,-1
 768 128 l 1,9,-1
 768 0 l 1,10,-1
 256 0 l 1,11,-1
 256 128 l 1,12,-1
 128 128 l 1,13,-1
 128 256 l 1,14,-1
 384 256 l 1,15,-1
 384 128 l 1,16,-1
 640 128 l 1,17,-1
 640 384 l 1,18,-1
 128 384 l 1,19,-1
 128 768 l 1,0,-1
EndSplineSet
EndChar

StartChar: six
Encoding: 54 54 25
Width: 1024
GlyphClass: 2
Flags: W
LayerCount: 2
Fore
SplineSet
256 768 m 1,0,-1
 768 768 l 1,1,-1
 768 640 l 1,2,-1
 384 640 l 1,3,-1
 384 512 l 1,4,-1
 768 512 l 1,5,-1
 768 384 l 1,6,-1
 896 384 l 1,7,-1
 896 128 l 1,8,-1
 768 128 l 1,9,-1
 768 0 l 1,10,-1
 256 0 l 1,11,-1
 256 128 l 1,12,-1
 128 128 l 1,13,-1
 128 640 l 1,14,-1
 256 640 l 1,15,-1
 256 768 l 1,0,-1
384 384 m 1,16,-1
 384 128 l 1,17,-1
 640 128 l 1,18,-1
 640 384 l 1,19,-1
 384 384 l 1,16,-1
EndSplineSet
EndChar

StartChar: seven
Encoding: 55 55 26
Width: 1024
GlyphClass: 2
Flags: W
LayerCount: 2
Fore
SplineSet
128 768 m 1,0,-1
 896 768 l 1,1,-1
 896 640 l 1,2,-1
 768 640 l 1,3,-1
 768 384 l 1,4,-1
 640 384 l 1,5,-1
 640 0 l 1,6,-1
 384 0 l 1,7,-1
 384 384 l 1,8,-1
 512 384 l 1,9,-1
 512 640 l 1,10,-1
 128 640 l 1,11,-1
 128 768 l 1,0,-1
EndSplineSet
EndChar

StartChar: eight
Encoding: 56 56 27
Width: 1024
GlyphClass: 2
Flags: W
LayerCount: 2
Fore
SplineSet
256 768 m 1,0,-1
 768 768 l 1,1,-1
 768 640 l 1,2,-1
 896 640 l 1,3,-1
 896 512 l 1,4,-1
 768 512 l 1,5,-1
 768 384 l 1,6,-1
 896 384 l 1,7,-1
 896 128 l 1,8,-1
 768 128 l 1,9,-1
 768 0 l 1,10,-1
 256 0 l 1,11,-1
 256 128 l 1,12,-1
 128 128 l 1,13,-1
 128 384 l 1,14,-1
 256 384 l 1,15,-1
 256 512 l 1,16,-1
 128 512 l 1,17,-1
 128 640 l 1,18,-1
 256 640 l 1,19,-1
 256 768 l 1,0,-1
384 640 m 1,20,-1
 384 512 l 1,21,-1
 640 512 l 1,22,-1
 640 640 l 1,23,-1
 384 640 l 1,20,-1
384 384 m 1,24,-1
 384 128 l 1,25,-1
 640 128 l 1,26,-1
 640 384 l 1,27,-1
 384 384 l 1,24,-1
EndSplineSet
EndChar

StartChar: nine
Encoding: 57 57 28
Width: 1024
GlyphClass: 2
Flags: W
LayerCount: 2
Fore
SplineSet
256 768 m 1,0,-1
 768 768 l 1,1,-1
 768 640 l 1,2,-1
 896 640 l 1,3,-1
 896 128 l 1,4,-1
 768 128 l 1,5,-1
 768 0 l 1,6,-1
 256 0 l 1,7,-1
 256 128 l 1,8,-1
 640 128 l 1,9,-1
 640 256 l 1,10,-1
 256 256 l 1,11,-1
 256 384 l 1,12,-1
 128 384 l 1,13,-1
 128 640 l 1,14,-1
 256 640 l 1,15,-1
 256 768 l 1,0,-1
384 640 m 1,16,-1
 384 384 l 1,17,-1
 640 384 l 1,18,-1
 640 640 l 1,19,-1
 384 640 l 1,16,-1
EndSplineSet
EndChar

StartChar: colon
Encoding: 58 58 29
Width: 1024
GlyphClass: 2
Flags: W
LayerCount: 2
Fore
SplineSet
384 768 m 1,0,-1
 640 768 l 1,1,-1
 640 512 l 1,2,-1
 384 512 l 1,3,-1
 384 768 l 1,0,-1
384 384 m 1,4,-1
 640 384 l 1,5,-1
 640 128 l 1,6,-1
 384 128 l 1,7,-1
 384 384 l 1,4,-1
EndSplineSet
EndChar

StartChar: semicolon
Encoding: 59 59 30
Width: 1024
GlyphClass: 2
Flags: W
LayerCount: 2
Fore
SplineSet
384 768 m 1,0,-1
 640 768 l 1,1,-1
 640 512 l 1,2,-1
 384 512 l 1,3,-1
 384 768 l 1,0,-1
384 384 m 1,4,-1
 640 384 l 1,5,-1
 640 128 l 1,6,-1
 512 128 l 1,7,-1
 512 0 l 1,8,-1
 384 0 l 1,9,-1
 384 384 l 1,4,-1
EndSplineSet
EndChar

StartChar: less
Encoding: 60 60 31
Width: 1024
GlyphClass: 2
Flags: W
LayerCount: 2
Fore
SplineSet
512 768 m 1,0,-1
 768 768 l 1,1,-1
 768 640 l 1,2,-1
 640 640 l 1,3,-1
 640 512 l 1,4,-1
 512 512 l 1,5,-1
 512 384 l 1,6,-1
 640 384 l 1,7,-1
 640 256 l 1,8,-1
 768 256 l 1,9,-1
 768 128 l 1,10,-1
 512 128 l 1,11,-1
 512 256 l 1,12,-1
 384 256 l 1,13,-1
 384 384 l 1,14,-1
 256 384 l 1,15,-1
 256 512 l 1,16,-1
 384 512 l 1,17,-1
 384 640 l 1,18,-1
 512 640 l 1,19,-1
 512 768 l 1,0,-1
EndSplineSet
EndChar

StartChar: equal
Encoding: 61 61 32
Width: 1024
GlyphClass: 2
Flags: W
LayerCount: 2
Fore
SplineSet
256 768 m 1,0,-1
 896 768 l 1,1,-1
 896 512 l 1,2,-1
 256 512 l 1,3,-1
 256 768 l 1,0,-1
256 384 m 1,4,-1
 896 384 l 1,5,-1
 896 128 l 1,6,-1
 256 128 l 1,7,-1
 256 384 l 1,4,-1
EndSplineSet
EndChar

StartChar: greater
Encoding: 62 62 33
Width: 1024
GlyphClass: 2
Flags: W
LayerCount: 2
Fore
SplineSet
256 768 m 1,0,-1
 512 768 l 1,1,-1
 512 640 l 1,2,-1
 640 640 l 1,3,-1
 640 512 l 1,4,-1
 768 512 l 1,5,-1
 768 384 l 1,6,-1
 640 384 l 1,7,-1
 640 256 l 1,8,-1
 512 256 l 1,9,-1
 512 128 l 1,10,-1
 256 128 l 1,11,-1
 256 256 l 1,12,-1
 384 256 l 1,13,-1
 384 384 l 1,14,-1
 512 384 l 1,15,-1
 512 512 l 1,16,-1
 384 512 l 1,17,-1
 384 640 l 1,18,-1
 256 640 l 1,19,-1
 256 768 l 1,0,-1
EndSplineSet
EndChar

StartChar: question
Encoding: 63 63 34
Width: 1024
GlyphClass: 2
Flags: W
LayerCount: 2
Fore
SplineSet
256 768 m 1,0,-1
 768 768 l 1,1,-1
 768 640 l 1,2,-1
 896 640 l 1,3,-1
 896 384 l 1,4,-1
 768 384 l 1,5,-1
 768 256 l 1,6,-1
 384 256 l 1,7,-1
 384 384 l 1,8,-1
 640 384 l 1,9,-1
 640 640 l 1,10,-1
 384 640 l 1,11,-1
 384 512 l 1,12,-1
 128 512 l 1,13,-1
 128 640 l 1,14,-1
 256 640 l 1,15,-1
 256 768 l 1,0,-1
384 128 m 1,16,-1
 640 128 l 1,17,-1
 640 0 l 1,18,-1
 384 0 l 1,19,-1
 384 128 l 1,16,-1
EndSplineSet
EndChar

StartChar: at
Encoding: 64 64 35
Width: 1024
GlyphClass: 2
Flags: W
LayerCount: 2
Fore
SplineSet
256 768 m 1,0,-1
 768 768 l 1,1,-1
 768 640 l 1,2,-1
 896 640 l 1,3,-1
 896 384 l 1,4,-1
 768 384 l 1,5,-1
 768 256 l 1,6,-1
 512 256 l 1,7,-1
 512 512 l 1,8,-1
 640 512 l 1,9,-1
 640 640 l 1,10,-1
 384 640 l 1,11,-1
 384 128 l 1,12,-1
 896 128 l 1,13,-1
 896 0 l 1,14,-1
 256 0 l 1,15,-1
 256 128 l 1,16,-1
 128 128 l 1,17,-1
 128 640 l 1,18,-1
 256 640 l 1,19,-1
 256 768 l 1,0,-1
EndSplineSet
EndChar

StartChar: A
Encoding: 65 65 36
Width: 1024
GlyphClass: 2
Flags: W
LayerCount: 2
Fore
SplineSet
256 768 m 5,0,-1
 768 768 l 5,1,-1
 768 640 l 5,2,-1
 896 640 l 5,3,-1
 896 0 l 5,4,-1
 640 0 l 5,5,-1
 640 256 l 5,6,-1
 384 256 l 5,7,-1
 384 0 l 5,8,-1
 128 0 l 5,9,-1
 128 640 l 5,10,-1
 256 640 l 5,11,-1
 256 768 l 5,0,-1
384 640 m 5,12,-1
 384 384 l 5,13,-1
 640 384 l 5,14,-1
 640 640 l 5,15,-1
 384 640 l 5,12,-1
EndSplineSet
EndChar

StartChar: B
Encoding: 66 66 37
Width: 1024
GlyphClass: 2
Flags: W
LayerCount: 2
Fore
SplineSet
128 768 m 1,0,-1
 768 768 l 1,1,-1
 768 640 l 1,2,-1
 896 640 l 1,3,-1
 896 512 l 1,4,-1
 768 512 l 1,5,-1
 768 384 l 1,6,-1
 896 384 l 1,7,-1
 896 128 l 1,8,-1
 768 128 l 1,9,-1
 768 0 l 1,10,-1
 128 0 l 1,11,-1
 128 768 l 1,0,-1
384 640 m 1,12,-1
 384 512 l 1,13,-1
 640 512 l 1,14,-1
 640 640 l 1,15,-1
 384 640 l 1,12,-1
384 384 m 1,16,-1
 384 128 l 1,17,-1
 640 128 l 1,18,-1
 640 384 l 1,19,-1
 384 384 l 1,16,-1
EndSplineSet
EndChar

StartChar: C
Encoding: 67 67 38
Width: 1024
GlyphClass: 2
Flags: W
LayerCount: 2
Fore
SplineSet
256 768 m 1,0,-1
 768 768 l 1,1,-1
 768 640 l 1,2,-1
 896 640 l 1,3,-1
 896 512 l 1,4,-1
 640 512 l 1,5,-1
 640 640 l 1,6,-1
 384 640 l 1,7,-1
 384 128 l 1,8,-1
 640 128 l 1,9,-1
 640 256 l 1,10,-1
 896 256 l 1,11,-1
 896 128 l 1,12,-1
 768 128 l 1,13,-1
 768 0 l 1,14,-1
 256 0 l 1,15,-1
 256 128 l 1,16,-1
 128 128 l 1,17,-1
 128 640 l 1,18,-1
 256 640 l 1,19,-1
 256 768 l 1,0,-1
EndSplineSet
EndChar

StartChar: D
Encoding: 68 68 39
Width: 1024
GlyphClass: 2
Flags: W
LayerCount: 2
Fore
SplineSet
128 768 m 1,0,-1
 768 768 l 1,1,-1
 768 640 l 1,2,-1
 896 640 l 1,3,-1
 896 128 l 1,4,-1
 768 128 l 1,5,-1
 768 0 l 1,6,-1
 128 0 l 1,7,-1
 128 768 l 1,0,-1
384 640 m 1,8,-1
 384 128 l 1,9,-1
 640 128 l 1,10,-1
 640 640 l 1,11,-1
 384 640 l 1,8,-1
EndSplineSet
EndChar

StartChar: E
Encoding: 69 69 40
Width: 1024
GlyphClass: 2
Flags: W
LayerCount: 2
Fore
SplineSet
128 768 m 1,0,-1
 896 768 l 1,1,-1
 896 640 l 1,2,-1
 384 640 l 1,3,-1
 384 512 l 1,4,-1
 640 512 l 1,5,-1
 640 384 l 1,6,-1
 384 384 l 1,7,-1
 384 128 l 1,8,-1
 896 128 l 1,9,-1
 896 0 l 1,10,-1
 128 0 l 1,11,-1
 128 768 l 1,0,-1
EndSplineSet
EndChar

StartChar: F
Encoding: 70 70 41
Width: 1024
GlyphClass: 2
Flags: W
LayerCount: 2
Fore
SplineSet
128 768 m 1,0,-1
 896 768 l 1,1,-1
 896 640 l 1,2,-1
 384 640 l 1,3,-1
 384 512 l 1,4,-1
 640 512 l 1,5,-1
 640 384 l 1,6,-1
 384 384 l 1,7,-1
 384 0 l 1,8,-1
 128 0 l 1,9,-1
 128 768 l 1,0,-1
EndSplineSet
EndChar

StartChar: G
Encoding: 71 71 42
Width: 1024
GlyphClass: 2
Flags: W
LayerCount: 2
Fore
SplineSet
256 768 m 1,0,-1
 768 768 l 1,1,-1
 768 640 l 1,2,-1
 896 640 l 1,3,-1
 896 512 l 1,4,-1
 640 512 l 1,5,-1
 640 640 l 1,6,-1
 384 640 l 1,7,-1
 384 128 l 1,8,-1
 640 128 l 1,9,-1
 640 256 l 1,10,-1
 512 256 l 1,11,-1
 512 384 l 1,12,-1
 896 384 l 1,13,-1
 896 128 l 1,14,-1
 768 128 l 1,15,-1
 768 0 l 1,16,-1
 256 0 l 1,17,-1
 256 128 l 1,18,-1
 128 128 l 1,19,-1
 128 640 l 1,20,-1
 256 640 l 1,21,-1
 256 768 l 1,0,-1
EndSplineSet
EndChar

StartChar: H
Encoding: 72 72 43
Width: 1024
GlyphClass: 2
Flags: W
LayerCount: 2
Fore
SplineSet
128 768 m 1,0,-1
 384 768 l 1,1,-1
 384 512 l 1,2,-1
 640 512 l 1,3,-1
 640 768 l 1,4,-1
 896 768 l 1,5,-1
 896 0 l 1,6,-1
 640 0 l 1,7,-1
 640 384 l 1,8,-1
 384 384 l 1,9,-1
 384 0 l 1,10,-1
 128 0 l 1,11,-1
 128 768 l 1,0,-1
EndSplineSet
EndChar

StartChar: I
Encoding: 73 73 44
Width: 1024
GlyphClass: 2
Flags: W
LayerCount: 2
Fore
SplineSet
256 768 m 5,0,-1
 768 768 l 5,1,-1
 768 640 l 5,2,-1
 640 640 l 5,3,-1
 640 128 l 5,4,-1
 768 128 l 5,5,-1
 768 0 l 5,6,-1
 256 0 l 5,7,-1
 256 128 l 5,8,-1
 384 128 l 5,9,-1
 384 640 l 5,10,-1
 256 640 l 5,11,-1
 256 768 l 5,0,-1
EndSplineSet
EndChar

StartChar: J
Encoding: 74 74 45
Width: 1024
GlyphClass: 2
Flags: W
LayerCount: 2
Fore
SplineSet
256 768 m 1,0,-1
 896 768 l 1,1,-1
 896 640 l 1,2,-1
 768 640 l 1,3,-1
 768 128 l 1,4,-1
 640 128 l 1,5,-1
 640 0 l 1,6,-1
 256 0 l 1,7,-1
 256 128 l 1,8,-1
 128 128 l 1,9,-1
 128 256 l 1,10,-1
 384 256 l 1,11,-1
 384 128 l 1,12,-1
 512 128 l 1,13,-1
 512 640 l 1,14,-1
 256 640 l 1,15,-1
 256 768 l 1,0,-1
EndSplineSet
EndChar

StartChar: K
Encoding: 75 75 46
Width: 1024
GlyphClass: 2
Flags: W
LayerCount: 2
Fore
SplineSet
128 768 m 1,0,-1
 384 768 l 1,1,-1
 384 512 l 1,2,-1
 512 512 l 1,3,-1
 512 640 l 1,4,-1
 640 640 l 1,5,-1
 640 768 l 1,6,-1
 896 768 l 1,7,-1
 896 640 l 1,8,-1
 768 640 l 1,9,-1
 768 512 l 1,10,-1
 640 512 l 1,11,-1
 640 256 l 1,12,-1
 768 256 l 1,13,-1
 768 128 l 1,14,-1
 896 128 l 1,15,-1
 896 0 l 1,16,-1
 640 0 l 1,17,-1
 640 128 l 1,18,-1
 512 128 l 1,19,-1
 512 256 l 1,20,-1
 384 256 l 1,21,-1
 384 0 l 1,22,-1
 128 0 l 1,23,-1
 128 768 l 1,0,-1
EndSplineSet
EndChar

StartChar: L
Encoding: 76 76 47
Width: 1024
GlyphClass: 2
Flags: W
LayerCount: 2
Fore
SplineSet
128 768 m 1,0,-1
 384 768 l 1,1,-1
 384 128 l 1,2,-1
 768 128 l 1,3,-1
 768 0 l 1,4,-1
 128 0 l 1,5,-1
 128 768 l 1,0,-1
EndSplineSet
EndChar

StartChar: M
Encoding: 77 77 48
Width: 1024
GlyphClass: 2
Flags: W
LayerCount: 2
Fore
SplineSet
128 768 m 1,0,-1
 384 768 l 1,1,-1
 384 640 l 1,2,-1
 512 640 l 1,3,-1
 512 512 l 1,4,-1
 640 512 l 1,5,-1
 640 640 l 1,6,-1
 768 640 l 1,7,-1
 768 768 l 1,8,-1
 1024 768 l 1,9,-1
 1024 0 l 1,10,-1
 768 0 l 1,11,-1
 768 384 l 1,12,-1
 640 384 l 1,13,-1
 640 256 l 1,14,-1
 512 256 l 1,15,-1
 512 384 l 1,16,-1
 384 384 l 1,17,-1
 384 0 l 1,18,-1
 128 0 l 1,19,-1
 128 768 l 1,0,-1
EndSplineSet
EndChar

StartChar: N
Encoding: 78 78 49
Width: 1024
GlyphClass: 2
Flags: W
LayerCount: 2
Fore
SplineSet
128 768 m 1,0,-1
 384 768 l 1,1,-1
 384 640 l 1,2,-1
 512 640 l 1,3,-1
 512 512 l 1,4,-1
 640 512 l 1,5,-1
 640 768 l 1,6,-1
 896 768 l 1,7,-1
 896 0 l 1,8,-1
 640 0 l 1,9,-1
 640 128 l 1,10,-1
 512 128 l 1,11,-1
 512 256 l 1,12,-1
 384 256 l 1,13,-1
 384 0 l 1,14,-1
 128 0 l 1,15,-1
 128 768 l 1,0,-1
EndSplineSet
EndChar

StartChar: O
Encoding: 79 79 50
Width: 1024
GlyphClass: 2
Flags: W
LayerCount: 2
Fore
SplineSet
256 768 m 5,0,-1
 768 768 l 5,1,-1
 768 640 l 5,2,-1
 896 640 l 5,3,-1
 896 128 l 5,4,-1
 768 128 l 5,5,-1
 768 0 l 5,6,-1
 256 0 l 5,7,-1
 256 128 l 5,8,-1
 128 128 l 5,9,-1
 128 640 l 5,10,-1
 256 640 l 5,11,-1
 256 768 l 5,0,-1
384 640 m 5,12,-1
 384 128 l 5,13,-1
 640 128 l 5,14,-1
 640 640 l 5,15,-1
 384 640 l 5,12,-1
EndSplineSet
EndChar

StartChar: P
Encoding: 80 80 51
Width: 1024
GlyphClass: 2
Flags: W
LayerCount: 2
Fore
SplineSet
128 768 m 1,0,-1
 768 768 l 1,1,-1
 768 640 l 1,2,-1
 896 640 l 1,3,-1
 896 384 l 1,4,-1
 768 384 l 1,5,-1
 768 256 l 1,6,-1
 384 256 l 1,7,-1
 384 0 l 1,8,-1
 128 0 l 1,9,-1
 128 768 l 1,0,-1
384 640 m 1,10,-1
 384 384 l 1,11,-1
 640 384 l 1,12,-1
 640 640 l 1,13,-1
 384 640 l 1,10,-1
EndSplineSet
EndChar

StartChar: Q
Encoding: 81 81 52
Width: 1024
GlyphClass: 2
Flags: W
LayerCount: 2
Fore
SplineSet
256 768 m 1,0,-1
 768 768 l 1,1,-1
 768 640 l 1,2,-1
 896 640 l 1,3,-1
 896 256 l 1,4,-1
 768 256 l 1,5,-1
 768 128 l 1,6,-1
 896 128 l 1,7,-1
 896 0 l 1,8,-1
 768 0 l 1,9,-1
 768 128 l 1,10,-1
 640 128 l 1,11,-1
 640 0 l 1,12,-1
 256 0 l 1,13,-1
 256 128 l 1,14,-1
 128 128 l 1,15,-1
 128 640 l 1,16,-1
 256 640 l 1,17,-1
 256 768 l 1,0,-1
384 640 m 1,18,-1
 384 128 l 1,19,-1
 512 128 l 1,20,-1
 512 256 l 1,21,-1
 640 256 l 1,22,-1
 640 640 l 1,23,-1
 384 640 l 1,18,-1
EndSplineSet
EndChar

StartChar: R
Encoding: 82 82 53
Width: 1024
GlyphClass: 2
Flags: W
LayerCount: 2
Fore
SplineSet
128 768 m 1,0,-1
 768 768 l 1,1,-1
 768 640 l 1,2,-1
 896 640 l 1,3,-1
 896 384 l 1,4,-1
 768 384 l 1,5,-1
 768 256 l 1,6,-1
 896 256 l 1,7,-1
 896 0 l 1,8,-1
 640 0 l 1,9,-1
 640 256 l 1,10,-1
 384 256 l 1,11,-1
 384 0 l 1,12,-1
 128 0 l 1,13,-1
 128 768 l 1,0,-1
384 640 m 1,14,-1
 384 384 l 1,15,-1
 640 384 l 1,16,-1
 640 640 l 1,17,-1
 384 640 l 1,14,-1
EndSplineSet
EndChar

StartChar: S
Encoding: 83 83 54
Width: 1024
GlyphClass: 2
Flags: W
LayerCount: 2
Fore
SplineSet
256 768 m 1,0,-1
 768 768 l 1,1,-1
 768 640 l 1,2,-1
 896 640 l 1,3,-1
 896 512 l 1,4,-1
 768 512 l 1,5,-1
 768 384 l 1,6,-1
 896 384 l 1,7,-1
 896 128 l 1,8,-1
 768 128 l 1,9,-1
 768 0 l 1,10,-1
 256 0 l 1,11,-1
 256 128 l 1,12,-1
 128 128 l 1,13,-1
 128 256 l 1,14,-1
 384 256 l 1,15,-1
 384 128 l 1,16,-1
 640 128 l 1,17,-1
 640 384 l 1,18,-1
 256 384 l 1,19,-1
 256 512 l 1,20,-1
 128 512 l 1,21,-1
 128 640 l 1,22,-1
 256 640 l 1,23,-1
 256 768 l 1,0,-1
384 640 m 1,24,-1
 384 512 l 1,25,-1
 768 512 l 1,26,-1
 768 640 l 1,27,-1
 384 640 l 1,24,-1
EndSplineSet
EndChar

StartChar: T
Encoding: 84 84 55
Width: 1024
GlyphClass: 2
Flags: W
LayerCount: 2
Fore
SplineSet
128 768 m 1,0,-1
 896 768 l 1,1,-1
 896 640 l 1,2,-1
 640 640 l 1,3,-1
 640 0 l 1,4,-1
 384 0 l 1,5,-1
 384 640 l 1,6,-1
 128 640 l 1,7,-1
 128 768 l 1,0,-1
EndSplineSet
EndChar

StartChar: U
Encoding: 85 85 56
Width: 1024
GlyphClass: 2
Flags: W
LayerCount: 2
Fore
SplineSet
128 768 m 5,0,-1
 384 768 l 5,1,-1
 384 128 l 5,2,-1
 640 128 l 5,3,-1
 640 768 l 5,4,-1
 896 768 l 5,5,-1
 896 128 l 5,6,-1
 768 128 l 5,7,-1
 768 0 l 5,8,-1
 256 0 l 5,9,-1
 256 128 l 5,10,-1
 128 128 l 5,11,-1
 128 768 l 5,0,-1
EndSplineSet
EndChar

StartChar: V
Encoding: 86 86 57
Width: 1024
GlyphClass: 2
Flags: W
LayerCount: 2
Fore
SplineSet
128 768 m 1,0,-1
 384 768 l 1,1,-1
 384 256 l 1,2,-1
 640 256 l 1,3,-1
 640 768 l 1,4,-1
 896 768 l 1,5,-1
 896 256 l 1,6,-1
 768 256 l 1,7,-1
 768 128 l 1,8,-1
 640 128 l 1,9,-1
 640 0 l 1,10,-1
 384 0 l 1,11,-1
 384 128 l 1,12,-1
 256 128 l 1,13,-1
 256 256 l 1,14,-1
 128 256 l 1,15,-1
 128 768 l 1,0,-1
EndSplineSet
EndChar

StartChar: W
Encoding: 87 87 58
Width: 1024
GlyphClass: 2
Flags: W
LayerCount: 2
Fore
SplineSet
128 768 m 1,0,-1
 384 768 l 1,1,-1
 384 384 l 1,2,-1
 512 384 l 1,3,-1
 512 512 l 1,4,-1
 640 512 l 1,5,-1
 640 384 l 1,6,-1
 768 384 l 1,7,-1
 768 768 l 1,8,-1
 1024 768 l 1,9,-1
 1024 0 l 1,10,-1
 768 0 l 1,11,-1
 768 128 l 1,12,-1
 640 128 l 1,13,-1
 640 256 l 1,14,-1
 512 256 l 1,15,-1
 512 128 l 1,16,-1
 384 128 l 1,17,-1
 384 0 l 1,18,-1
 128 0 l 1,19,-1
 128 768 l 1,0,-1
EndSplineSet
EndChar

StartChar: X
Encoding: 88 88 59
Width: 1024
GlyphClass: 2
Flags: W
LayerCount: 2
Fore
SplineSet
128 768 m 1,0,-1
 384 768 l 1,1,-1
 384 640 l 1,2,-1
 640 640 l 1,3,-1
 640 768 l 1,4,-1
 896 768 l 1,5,-1
 896 640 l 1,6,-1
 768 640 l 1,7,-1
 768 512 l 1,8,-1
 640 512 l 1,9,-1
 640 384 l 1,10,-1
 768 384 l 1,11,-1
 768 256 l 1,12,-1
 896 256 l 1,13,-1
 896 0 l 1,14,-1
 768 0 l 1,15,-1
 768 128 l 1,16,-1
 640 128 l 1,17,-1
 640 256 l 1,18,-1
 384 256 l 1,19,-1
 384 128 l 1,20,-1
 256 128 l 1,21,-1
 256 0 l 1,22,-1
 128 0 l 1,23,-1
 128 256 l 1,24,-1
 256 256 l 1,25,-1
 256 384 l 1,26,-1
 384 384 l 1,27,-1
 384 512 l 1,28,-1
 256 512 l 1,29,-1
 256 640 l 1,30,-1
 128 640 l 1,31,-1
 128 768 l 1,0,-1
EndSplineSet
EndChar

StartChar: Y
Encoding: 89 89 60
Width: 1024
GlyphClass: 2
Flags: W
LayerCount: 2
Fore
SplineSet
128 768 m 1,0,-1
 384 768 l 1,1,-1
 384 512 l 1,2,-1
 640 512 l 1,3,-1
 640 768 l 1,4,-1
 896 768 l 1,5,-1
 896 512 l 1,6,-1
 768 512 l 1,7,-1
 768 384 l 1,8,-1
 640 384 l 1,9,-1
 640 0 l 1,10,-1
 384 0 l 1,11,-1
 384 384 l 1,12,-1
 256 384 l 1,13,-1
 256 512 l 1,14,-1
 128 512 l 1,15,-1
 128 768 l 1,0,-1
EndSplineSet
EndChar

StartChar: Z
Encoding: 90 90 61
Width: 1024
GlyphClass: 2
Flags: W
LayerCount: 2
Fore
SplineSet
128 768 m 1,0,-1
 896 768 l 1,1,-1
 896 640 l 1,2,-1
 768 640 l 1,3,-1
 768 512 l 1,4,-1
 640 512 l 1,5,-1
 640 384 l 1,6,-1
 512 384 l 1,7,-1
 512 256 l 1,8,-1
 384 256 l 1,9,-1
 384 128 l 1,10,-1
 896 128 l 1,11,-1
 896 0 l 1,12,-1
 128 0 l 1,13,-1
 128 256 l 1,14,-1
 256 256 l 1,15,-1
 256 384 l 1,16,-1
 384 384 l 1,17,-1
 384 512 l 1,18,-1
 512 512 l 1,19,-1
 512 640 l 1,20,-1
 128 640 l 1,21,-1
 128 768 l 1,0,-1
EndSplineSet
EndChar

StartChar: bracketleft
Encoding: 91 91 62
Width: 1024
GlyphClass: 2
Flags: W
LayerCount: 2
Fore
SplineSet
384 768 m 1,0,-1
 768 768 l 1,1,-1
 768 640 l 1,2,-1
 640 640 l 1,3,-1
 640 128 l 1,4,-1
 768 128 l 1,5,-1
 768 0 l 1,6,-1
 384 0 l 1,7,-1
 384 768 l 1,0,-1
EndSplineSet
EndChar

StartChar: backslash
Encoding: 92 92 63
Width: 1024
GlyphClass: 2
Flags: W
LayerCount: 2
Fore
SplineSet
128 768 m 1,0,-1
 384 768 l 1,1,-1
 384 640 l 1,2,-1
 512 640 l 1,3,-1
 512 512 l 1,4,-1
 640 512 l 1,5,-1
 640 384 l 1,6,-1
 768 384 l 1,7,-1
 768 128 l 1,8,-1
 640 128 l 1,9,-1
 640 256 l 1,10,-1
 512 256 l 1,11,-1
 512 384 l 1,12,-1
 384 384 l 1,13,-1
 384 512 l 1,14,-1
 256 512 l 1,15,-1
 256 640 l 1,16,-1
 128 640 l 1,17,-1
 128 768 l 1,0,-1
EndSplineSet
EndChar

StartChar: bracketright
Encoding: 93 93 64
Width: 1024
GlyphClass: 2
Flags: W
LayerCount: 2
Fore
SplineSet
384 768 m 1,0,-1
 768 768 l 1,1,-1
 768 0 l 1,2,-1
 384 0 l 1,3,-1
 384 128 l 1,4,-1
 512 128 l 1,5,-1
 512 640 l 1,6,-1
 384 640 l 1,7,-1
 384 768 l 1,0,-1
EndSplineSet
EndChar

StartChar: asciicircum
Encoding: 94 94 65
Width: 1024
GlyphClass: 2
Flags: W
LayerCount: 2
Fore
SplineSet
384 896 m 1,0,-1
 768 896 l 1,1,-1
 768 768 l 1,2,-1
 896 768 l 1,3,-1
 896 640 l 1,4,-1
 640 640 l 1,5,-1
 640 768 l 1,6,-1
 512 768 l 1,7,-1
 512 640 l 1,8,-1
 256 640 l 1,9,-1
 256 768 l 1,10,-1
 384 768 l 1,11,-1
 384 896 l 1,0,-1
EndSplineSet
EndChar

StartChar: underscore
Encoding: 95 95 66
Width: 1024
GlyphClass: 2
Flags: W
LayerCount: 2
Fore
SplineSet
128 128 m 1,0,-1
 896 128 l 1,1,-1
 896 0 l 1,2,-1
 128 0 l 1,3,-1
 128 128 l 1,0,-1
EndSplineSet
EndChar

StartChar: grave
Encoding: 96 96 67
Width: 1024
GlyphClass: 2
Flags: W
LayerCount: 2
Fore
SplineSet
256 768 m 1,0,-1
 512 768 l 1,1,-1
 512 512 l 1,2,-1
 640 512 l 1,3,-1
 640 384 l 1,4,-1
 384 384 l 1,5,-1
 384 512 l 1,6,-1
 256 512 l 1,7,-1
 256 768 l 1,0,-1
EndSplineSet
EndChar

StartChar: a
Encoding: 97 97 68
Width: 1024
GlyphClass: 2
Flags: W
LayerCount: 2
Fore
SplineSet
256 640 m 1,0,-1
 896 640 l 1,1,-1
 896 128 l 1,2,-1
 1024 128 l 1,3,-1
 1024 0 l 1,4,-1
 768 0 l 1,5,-1
 768 128 l 1,6,-1
 640 128 l 1,7,-1
 640 0 l 1,8,-1
 256 0 l 1,9,-1
 256 128 l 1,10,-1
 128 128 l 1,11,-1
 128 512 l 1,12,-1
 256 512 l 1,13,-1
 256 640 l 1,0,-1
384 512 m 1,14,-1
 384 128 l 1,15,-1
 640 128 l 1,16,-1
 640 512 l 1,17,-1
 384 512 l 1,14,-1
EndSplineSet
EndChar

StartChar: b
Encoding: 98 98 69
Width: 1024
GlyphClass: 2
Flags: W
LayerCount: 2
Fore
SplineSet
128 896 m 1,0,-1
 384 896 l 1,1,-1
 384 640 l 1,2,-1
 768 640 l 1,3,-1
 768 512 l 1,4,-1
 896 512 l 1,5,-1
 896 128 l 1,6,-1
 768 128 l 1,7,-1
 768 0 l 1,8,-1
 128 0 l 1,9,-1
 128 896 l 1,0,-1
384 512 m 1,10,-1
 384 128 l 1,11,-1
 640 128 l 1,12,-1
 640 512 l 1,13,-1
 384 512 l 1,10,-1
EndSplineSet
EndChar

StartChar: c
Encoding: 99 99 70
Width: 1024
GlyphClass: 2
Flags: W
LayerCount: 2
Fore
SplineSet
256 640 m 1,0,-1
 768 640 l 1,1,-1
 768 512 l 1,2,-1
 896 512 l 1,3,-1
 896 384 l 1,4,-1
 640 384 l 1,5,-1
 640 512 l 1,6,-1
 384 512 l 1,7,-1
 384 128 l 1,8,-1
 640 128 l 1,9,-1
 640 256 l 1,10,-1
 896 256 l 1,11,-1
 896 128 l 1,12,-1
 768 128 l 1,13,-1
 768 0 l 1,14,-1
 256 0 l 1,15,-1
 256 128 l 1,16,-1
 128 128 l 1,17,-1
 128 512 l 1,18,-1
 256 512 l 1,19,-1
 256 640 l 1,0,-1
EndSplineSet
EndChar

StartChar: d
Encoding: 100 100 71
Width: 1024
GlyphClass: 2
Flags: W
LayerCount: 2
Fore
SplineSet
640 896 m 1,0,-1
 896 896 l 1,1,-1
 896 0 l 1,2,-1
 256 0 l 1,3,-1
 256 128 l 1,4,-1
 128 128 l 1,5,-1
 128 512 l 1,6,-1
 256 512 l 1,7,-1
 256 640 l 1,8,-1
 640 640 l 1,9,-1
 640 896 l 1,0,-1
384 512 m 1,10,-1
 384 128 l 1,11,-1
 640 128 l 1,12,-1
 640 512 l 1,13,-1
 384 512 l 1,10,-1
EndSplineSet
EndChar

StartChar: e
Encoding: 101 101 72
Width: 1024
GlyphClass: 2
Flags: W
LayerCount: 2
Fore
SplineSet
256 640 m 1,0,-1
 768 640 l 1,1,-1
 768 512 l 1,2,-1
 896 512 l 1,3,-1
 896 384 l 1,4,-1
 768 384 l 1,5,-1
 768 256 l 1,6,-1
 384 256 l 1,7,-1
 384 128 l 1,8,-1
 896 128 l 1,9,-1
 896 0 l 1,10,-1
 256 0 l 1,11,-1
 256 128 l 1,12,-1
 128 128 l 1,13,-1
 128 512 l 1,14,-1
 256 512 l 1,15,-1
 256 640 l 1,0,-1
384 512 m 1,16,-1
 384 384 l 1,17,-1
 640 384 l 1,18,-1
 640 512 l 1,19,-1
 384 512 l 1,16,-1
EndSplineSet
EndChar

StartChar: f
Encoding: 102 102 73
Width: 1024
GlyphClass: 2
Flags: W
LayerCount: 2
Fore
SplineSet
512 768 m 1,0,-1
 896 768 l 1,1,-1
 896 640 l 1,2,-1
 640 640 l 1,3,-1
 640 512 l 1,4,-1
 768 512 l 1,5,-1
 768 384 l 1,6,-1
 640 384 l 1,7,-1
 640 0 l 1,8,-1
 384 0 l 1,9,-1
 384 384 l 1,10,-1
 256 384 l 1,11,-1
 256 512 l 1,12,-1
 384 512 l 1,13,-1
 384 640 l 1,14,-1
 512 640 l 1,15,-1
 512 768 l 1,0,-1
EndSplineSet
EndChar

StartChar: g
Encoding: 103 103 74
Width: 1024
GlyphClass: 2
Flags: W
LayerCount: 2
Fore
SplineSet
256 640 m 1,0,-1
 896 640 l 1,1,-1
 896 0 l 1,2,-1
 768 0 l 1,3,-1
 768 -128 l 1,4,-1
 256 -128 l 1,5,-1
 256 0 l 1,6,-1
 640 0 l 1,7,-1
 640 128 l 1,8,-1
 256 128 l 1,9,-1
 256 256 l 1,10,-1
 128 256 l 1,11,-1
 128 512 l 1,12,-1
 256 512 l 1,13,-1
 256 640 l 1,0,-1
384 512 m 1,14,-1
 384 256 l 1,15,-1
 640 256 l 1,16,-1
 640 512 l 1,17,-1
 384 512 l 1,14,-1
EndSplineSet
EndChar

StartChar: h
Encoding: 104 104 75
Width: 1024
GlyphClass: 2
Flags: W
LayerCount: 2
Fore
SplineSet
128 896 m 1,0,-1
 384 896 l 1,1,-1
 384 640 l 1,2,-1
 768 640 l 1,3,-1
 768 512 l 1,4,-1
 896 512 l 1,5,-1
 896 0 l 1,6,-1
 640 0 l 1,7,-1
 640 512 l 1,8,-1
 384 512 l 1,9,-1
 384 0 l 1,10,-1
 128 0 l 1,11,-1
 128 896 l 1,0,-1
EndSplineSet
EndChar

StartChar: i
Encoding: 105 105 76
Width: 1024
GlyphClass: 2
Flags: W
LayerCount: 2
Fore
SplineSet
384 896 m 1,0,-1
 640 896 l 1,1,-1
 640 768 l 1,2,-1
 384 768 l 1,3,-1
 384 896 l 1,0,-1
384 640 m 1,4,-1
 640 640 l 1,5,-1
 640 0 l 1,6,-1
 384 0 l 1,7,-1
 384 640 l 1,4,-1
EndSplineSet
EndChar

StartChar: j
Encoding: 106 106 77
Width: 1024
GlyphClass: 2
Flags: W
LayerCount: 2
Fore
SplineSet
512 896 m 1,0,-1
 768 896 l 1,1,-1
 768 768 l 1,2,-1
 512 768 l 1,3,-1
 512 896 l 1,0,-1
512 640 m 1,4,-1
 768 640 l 1,5,-1
 768 0 l 1,6,-1
 640 0 l 1,7,-1
 640 -128 l 1,8,-1
 256 -128 l 1,9,-1
 256 0 l 1,10,-1
 128 0 l 1,11,-1
 128 128 l 1,12,-1
 384 128 l 1,13,-1
 384 0 l 1,14,-1
 512 0 l 1,15,-1
 512 640 l 1,4,-1
EndSplineSet
EndChar

StartChar: k
Encoding: 107 107 78
Width: 1024
GlyphClass: 2
Flags: W
LayerCount: 2
Fore
SplineSet
128 896 m 1,0,-1
 384 896 l 1,1,-1
 384 512 l 1,2,-1
 640 512 l 1,3,-1
 640 640 l 1,4,-1
 896 640 l 1,5,-1
 896 512 l 1,6,-1
 768 512 l 1,7,-1
 768 384 l 1,8,-1
 640 384 l 1,9,-1
 640 256 l 1,10,-1
 768 256 l 1,11,-1
 768 128 l 1,12,-1
 896 128 l 1,13,-1
 896 0 l 1,14,-1
 640 0 l 1,15,-1
 640 128 l 1,16,-1
 512 128 l 1,17,-1
 512 256 l 1,18,-1
 384 256 l 1,19,-1
 384 0 l 1,20,-1
 128 0 l 1,21,-1
 128 896 l 1,0,-1
EndSplineSet
EndChar

StartChar: l
Encoding: 108 108 79
Width: 1024
GlyphClass: 2
Flags: W
LayerCount: 2
Fore
SplineSet
256 896 m 1,0,-1
 512 896 l 1,1,-1
 512 128 l 1,2,-1
 768 128 l 1,3,-1
 768 0 l 1,4,-1
 384 0 l 1,5,-1
 384 128 l 1,6,-1
 256 128 l 1,7,-1
 256 896 l 1,0,-1
EndSplineSet
EndChar

StartChar: m
Encoding: 109 109 80
Width: 1024
GlyphClass: 2
Flags: W
LayerCount: 2
Fore
SplineSet
0 640 m 1,0,-1
 384 640 l 1,1,-1
 384 512 l 1,2,-1
 512 512 l 1,3,-1
 512 640 l 1,4,-1
 768 640 l 1,5,-1
 768 512 l 1,6,-1
 896 512 l 1,7,-1
 896 0 l 1,8,-1
 640 0 l 1,9,-1
 640 512 l 1,10,-1
 512 512 l 1,11,-1
 512 0 l 1,12,-1
 384 0 l 1,13,-1
 384 512 l 1,14,-1
 256 512 l 1,15,-1
 256 0 l 1,16,-1
 0 0 l 1,17,-1
 0 640 l 1,0,-1
EndSplineSet
EndChar

StartChar: n
Encoding: 110 110 81
Width: 1024
GlyphClass: 2
Flags: W
LayerCount: 2
Fore
SplineSet
128 640 m 1,0,-1
 768 640 l 1,1,-1
 768 512 l 1,2,-1
 896 512 l 1,3,-1
 896 0 l 1,4,-1
 640 0 l 1,5,-1
 640 512 l 1,6,-1
 384 512 l 1,7,-1
 384 0 l 1,8,-1
 128 0 l 1,9,-1
 128 640 l 1,0,-1
EndSplineSet
EndChar

StartChar: o
Encoding: 111 111 82
Width: 1024
GlyphClass: 2
Flags: W
LayerCount: 2
Fore
SplineSet
256 640 m 1,0,-1
 768 640 l 1,1,-1
 768 512 l 1,2,-1
 896 512 l 1,3,-1
 896 128 l 1,4,-1
 768 128 l 1,5,-1
 768 0 l 1,6,-1
 256 0 l 1,7,-1
 256 128 l 1,8,-1
 128 128 l 1,9,-1
 128 512 l 1,10,-1
 256 512 l 1,11,-1
 256 640 l 1,0,-1
384 512 m 1,12,-1
 384 128 l 1,13,-1
 640 128 l 1,14,-1
 640 512 l 1,15,-1
 384 512 l 1,12,-1
EndSplineSet
EndChar

StartChar: p
Encoding: 112 112 83
Width: 1024
GlyphClass: 2
Flags: W
LayerCount: 2
Fore
SplineSet
128 640 m 1,0,-1
 768 640 l 1,1,-1
 768 512 l 1,2,-1
 896 512 l 1,3,-1
 896 256 l 1,4,-1
 768 256 l 1,5,-1
 768 128 l 1,6,-1
 384 128 l 1,7,-1
 384 -128 l 1,8,-1
 128 -128 l 1,9,-1
 128 640 l 1,0,-1
384 512 m 1,10,-1
 384 256 l 1,11,-1
 640 256 l 1,12,-1
 640 512 l 1,13,-1
 384 512 l 1,10,-1
EndSplineSet
EndChar

StartChar: q
Encoding: 113 113 84
Width: 1024
GlyphClass: 2
Flags: W
LayerCount: 2
Fore
SplineSet
256 640 m 1,0,-1
 896 640 l 1,1,-1
 896 128 l 1,2,-1
 1024 128 l 1,3,-1
 1024 0 l 1,4,-1
 896 0 l 1,5,-1
 896 -128 l 1,6,-1
 640 -128 l 1,7,-1
 640 128 l 1,8,-1
 256 128 l 1,9,-1
 256 256 l 1,10,-1
 128 256 l 1,11,-1
 128 512 l 1,12,-1
 256 512 l 1,13,-1
 256 640 l 1,0,-1
384 512 m 1,14,-1
 384 256 l 1,15,-1
 640 256 l 1,16,-1
 640 512 l 1,17,-1
 384 512 l 1,14,-1
EndSplineSet
EndChar

StartChar: r
Encoding: 114 114 85
Width: 1024
GlyphClass: 2
Flags: W
LayerCount: 2
Fore
SplineSet
128 640 m 1,0,-1
 384 640 l 1,1,-1
 384 512 l 1,2,-1
 512 512 l 1,3,-1
 512 640 l 1,4,-1
 768 640 l 1,5,-1
 768 512 l 1,6,-1
 896 512 l 1,7,-1
 896 384 l 1,8,-1
 640 384 l 1,9,-1
 640 512 l 1,10,-1
 512 512 l 1,11,-1
 512 384 l 1,12,-1
 384 384 l 1,13,-1
 384 0 l 1,14,-1
 128 0 l 1,15,-1
 128 640 l 1,0,-1
EndSplineSet
EndChar

StartChar: s
Encoding: 115 115 86
Width: 1024
GlyphClass: 2
Flags: W
LayerCount: 2
Fore
SplineSet
256 640 m 1,0,-1
 768 640 l 1,1,-1
 768 512 l 1,2,-1
 384 512 l 1,3,-1
 384 384 l 1,4,-1
 768 384 l 1,5,-1
 768 256 l 1,6,-1
 896 256 l 1,7,-1
 896 128 l 1,8,-1
 768 128 l 1,9,-1
 768 0 l 1,10,-1
 128 0 l 1,11,-1
 128 128 l 1,12,-1
 640 128 l 1,13,-1
 640 256 l 1,14,-1
 256 256 l 1,15,-1
 256 384 l 1,16,-1
 128 384 l 1,17,-1
 128 512 l 1,18,-1
 256 512 l 1,19,-1
 256 640 l 1,0,-1
EndSplineSet
EndChar

StartChar: t
Encoding: 116 116 87
Width: 1024
GlyphClass: 2
Flags: W
LayerCount: 2
Fore
SplineSet
256 768 m 1,0,-1
 512 768 l 1,1,-1
 512 640 l 1,2,-1
 768 640 l 1,3,-1
 768 512 l 1,4,-1
 512 512 l 1,5,-1
 512 128 l 1,6,-1
 640 128 l 1,7,-1
 640 256 l 1,8,-1
 896 256 l 1,9,-1
 896 128 l 1,10,-1
 768 128 l 1,11,-1
 768 0 l 1,12,-1
 384 0 l 1,13,-1
 384 128 l 1,14,-1
 256 128 l 1,15,-1
 256 512 l 1,16,-1
 128 512 l 1,17,-1
 128 640 l 1,18,-1
 256 640 l 1,19,-1
 256 768 l 1,0,-1
EndSplineSet
EndChar

StartChar: u
Encoding: 117 117 88
Width: 1024
GlyphClass: 2
Flags: W
LayerCount: 2
Fore
SplineSet
128 640 m 1,0,-1
 384 640 l 1,1,-1
 384 128 l 1,2,-1
 640 128 l 1,3,-1
 640 640 l 1,4,-1
 896 640 l 1,5,-1
 896 128 l 1,6,-1
 1024 128 l 1,7,-1
 1024 0 l 1,8,-1
 768 0 l 1,9,-1
 768 128 l 1,10,-1
 640 128 l 1,11,-1
 640 0 l 1,12,-1
 256 0 l 1,13,-1
 256 128 l 1,14,-1
 128 128 l 1,15,-1
 128 640 l 1,0,-1
EndSplineSet
EndChar

StartChar: v
Encoding: 118 118 89
Width: 1024
GlyphClass: 2
Flags: W
LayerCount: 2
Fore
SplineSet
128 640 m 1,0,-1
 384 640 l 1,1,-1
 384 256 l 1,2,-1
 640 256 l 1,3,-1
 640 640 l 1,4,-1
 896 640 l 1,5,-1
 896 256 l 1,6,-1
 768 256 l 1,7,-1
 768 128 l 1,8,-1
 640 128 l 1,9,-1
 640 0 l 1,10,-1
 384 0 l 1,11,-1
 384 128 l 1,12,-1
 256 128 l 1,13,-1
 256 256 l 1,14,-1
 128 256 l 1,15,-1
 128 640 l 1,0,-1
EndSplineSet
EndChar

StartChar: w
Encoding: 119 119 90
Width: 1024
GlyphClass: 2
Flags: W
LayerCount: 2
Fore
SplineSet
128 640 m 1,0,-1
 384 640 l 1,1,-1
 384 128 l 1,2,-1
 512 128 l 1,3,-1
 512 640 l 1,4,-1
 640 640 l 1,5,-1
 640 128 l 1,6,-1
 768 128 l 1,7,-1
 768 640 l 1,8,-1
 1024 640 l 1,9,-1
 1024 0 l 1,10,-1
 640 0 l 1,11,-1
 640 128 l 1,12,-1
 512 128 l 1,13,-1
 512 0 l 1,14,-1
 256 0 l 1,15,-1
 256 128 l 1,16,-1
 128 128 l 1,17,-1
 128 640 l 1,0,-1
EndSplineSet
EndChar

StartChar: x
Encoding: 120 120 91
Width: 1024
GlyphClass: 2
Flags: W
LayerCount: 2
Fore
SplineSet
128 640 m 1,0,-1
 384 640 l 1,1,-1
 384 512 l 1,2,-1
 640 512 l 1,3,-1
 640 640 l 1,4,-1
 896 640 l 1,5,-1
 896 384 l 1,6,-1
 768 384 l 1,7,-1
 768 256 l 1,8,-1
 896 256 l 1,9,-1
 896 0 l 1,10,-1
 640 0 l 1,11,-1
 640 128 l 1,12,-1
 384 128 l 1,13,-1
 384 0 l 1,14,-1
 128 0 l 1,15,-1
 128 256 l 1,16,-1
 256 256 l 1,17,-1
 256 384 l 1,18,-1
 128 384 l 1,19,-1
 128 640 l 1,0,-1
EndSplineSet
EndChar

StartChar: y
Encoding: 121 121 92
Width: 1024
GlyphClass: 2
Flags: W
LayerCount: 2
Fore
SplineSet
128 640 m 1,0,-1
 384 640 l 1,1,-1
 384 256 l 1,2,-1
 640 256 l 1,3,-1
 640 640 l 1,4,-1
 896 640 l 1,5,-1
 896 0 l 1,6,-1
 768 0 l 1,7,-1
 768 -128 l 1,8,-1
 256 -128 l 1,9,-1
 256 0 l 1,10,-1
 640 0 l 1,11,-1
 640 128 l 1,12,-1
 256 128 l 1,13,-1
 256 256 l 1,14,-1
 128 256 l 1,15,-1
 128 640 l 1,0,-1
EndSplineSet
EndChar

StartChar: z
Encoding: 122 122 93
Width: 1024
GlyphClass: 2
Flags: W
LayerCount: 2
Fore
SplineSet
128 640 m 1,0,-1
 896 640 l 1,1,-1
 896 512 l 1,2,-1
 768 512 l 1,3,-1
 768 384 l 1,4,-1
 640 384 l 1,5,-1
 640 256 l 1,6,-1
 512 256 l 1,7,-1
 512 128 l 1,8,-1
 896 128 l 1,9,-1
 896 0 l 1,10,-1
 128 0 l 1,11,-1
 128 128 l 1,12,-1
 256 128 l 1,13,-1
 256 256 l 1,14,-1
 384 256 l 1,15,-1
 384 384 l 1,16,-1
 512 384 l 1,17,-1
 512 512 l 1,18,-1
 128 512 l 1,19,-1
 128 640 l 1,0,-1
EndSplineSet
EndChar

StartChar: braceleft
Encoding: 123 123 94
Width: 1024
GlyphClass: 2
Flags: W
LayerCount: 2
Fore
SplineSet
512 768 m 1,0,-1
 768 768 l 1,1,-1
 768 640 l 1,2,-1
 640 640 l 1,3,-1
 640 512 l 1,4,-1
 512 512 l 1,5,-1
 512 384 l 1,6,-1
 640 384 l 1,7,-1
 640 128 l 1,8,-1
 768 128 l 1,9,-1
 768 0 l 1,10,-1
 512 0 l 1,11,-1
 512 128 l 1,12,-1
 384 128 l 1,13,-1
 384 384 l 1,14,-1
 128 384 l 1,15,-1
 128 512 l 1,16,-1
 384 512 l 1,17,-1
 384 640 l 1,18,-1
 512 640 l 1,19,-1
 512 768 l 1,0,-1
EndSplineSet
EndChar

StartChar: bar
Encoding: 124 124 95
Width: 1024
GlyphClass: 2
Flags: W
LayerCount: 2
Fore
SplineSet
384 768 m 1,0,-1
 640 768 l 1,1,-1
 640 0 l 1,2,-1
 384 0 l 1,3,-1
 384 768 l 1,0,-1
EndSplineSet
EndChar

StartChar: braceright
Encoding: 125 125 96
Width: 1024
GlyphClass: 2
Flags: W
LayerCount: 2
Fore
SplineSet
256 768 m 1,0,-1
 512 768 l 1,1,-1
 512 640 l 1,2,-1
 640 640 l 1,3,-1
 640 512 l 1,4,-1
 896 512 l 1,5,-1
 896 384 l 1,6,-1
 640 384 l 1,7,-1
 640 128 l 1,8,-1
 512 128 l 1,9,-1
 512 0 l 1,10,-1
 256 0 l 1,11,-1
 256 128 l 1,12,-1
 384 128 l 1,13,-1
 384 384 l 1,14,-1
 512 384 l 1,15,-1
 512 512 l 1,16,-1
 384 512 l 1,17,-1
 384 640 l 1,18,-1
 256 640 l 1,19,-1
 256 768 l 1,0,-1
EndSplineSet
EndChar

StartChar: asciitilde
Encoding: 126 126 97
Width: 1024
GlyphClass: 2
Flags: W
LayerCount: 2
Fore
SplineSet
256 640 m 5,0,-1
 512 640 l 5,1,-1
 512 512 l 5,2,-1
 640 512 l 5,3,-1
 640 384 l 5,4,-1
 768 384 l 5,5,-1
 768 512 l 5,6,-1
 896 512 l 5,7,-1
 896 384 l 5,8,-1
 768 384 l 5,9,-1
 768 256 l 5,10,-1
 512 256 l 5,11,-1
 512 384 l 5,12,-1
 384 384 l 5,13,-1
 384 512 l 5,14,-1
 256 512 l 5,15,-1
 256 384 l 5,16,-1
 128 384 l 5,17,-1
 128 512 l 5,18,-1
 256 512 l 5,19,-1
 256 640 l 5,0,-1
EndSplineSet
EndChar

StartChar: copyright
Encoding: 169 169 107
Width: 1024
GlyphClass: 2
Flags: W
LayerCount: 2
Fore
SplineSet
256 896 m 1,0,-1
 640 896 l 1,1,-1
 640 768 l 1,2,-1
 768 768 l 1,3,-1
 768 640 l 1,4,-1
 896 640 l 1,5,-1
 896 256 l 1,6,-1
 768 256 l 1,7,-1
 768 128 l 1,8,-1
 640 128 l 1,9,-1
 640 0 l 1,10,-1
 256 0 l 1,11,-1
 256 128 l 1,12,-1
 128 128 l 1,13,-1
 128 256 l 1,14,-1
 0 256 l 1,15,-1
 0 640 l 1,16,-1
 128 640 l 1,17,-1
 128 768 l 1,18,-1
 256 768 l 1,19,-1
 256 896 l 1,0,-1
256 768 m 1,20,-1
 256 640 l 1,21,-1
 128 640 l 1,22,-1
 128 256 l 1,23,-1
 256 256 l 1,24,-1
 256 128 l 1,25,-1
 640 128 l 1,26,-1
 640 256 l 1,27,-1
 768 256 l 1,28,-1
 768 640 l 1,29,-1
 640 640 l 1,30,-1
 640 768 l 1,31,-1
 256 768 l 1,20,-1
256 640 m 1,32,-1
 640 640 l 1,33,-1
 640 512 l 1,34,-1
 384 512 l 1,35,-1
 384 384 l 1,36,-1
 640 384 l 1,37,-1
 640 256 l 1,38,-1
 256 256 l 1,39,-1
 256 640 l 1,32,-1
EndSplineSet
EndChar

StartChar: Aacute
Encoding: 193 193 131
Width: 1024
GlyphClass: 2
Flags: W
LayerCount: 2
Fore
SplineSet
256 687 m 1,0,-1
 768 687 l 1,1,-1
 768 559 l 1,2,-1
 896 559 l 1,3,-1
 896 0 l 1,4,-1
 640 0 l 1,5,-1
 640 181 l 1,6,-1
 384 181 l 1,7,-1
 384 0 l 1,8,-1
 128 0 l 1,9,-1
 128 559 l 1,10,-1
 256 559 l 1,11,-1
 256 687 l 1,0,-1
384 570 m 1,12,-1
 384 314 l 1,13,-1
 640 314 l 1,14,-1
 640 570 l 1,15,-1
 384 570 l 1,12,-1
396 719 m 5,16,-1
 652 719 l 5,17,-1
 652 806 l 5,18,-1
 780 806 l 5,19,-1
 780 893 l 5,20,-1
 524 893 l 5,21,-1
 524 806 l 5,22,-1
 396 806 l 5,23,-1
 396 719 l 5,16,-1
EndSplineSet
EndChar

StartChar: Eacute
Encoding: 201 201 139
Width: 1024
GlyphClass: 2
Flags: W
LayerCount: 2
Fore
SplineSet
401 721 m 1,0,-1
 657 721 l 1,1,-1
 657 808 l 1,2,-1
 785 808 l 1,3,-1
 785 895 l 1,4,-1
 529 895 l 1,5,-1
 529 808 l 1,6,-1
 401 808 l 1,7,-1
 401 721 l 1,0,-1
128 680 m 1,8,-1
 896 680 l 1,9,-1
 896 550 l 1,10,-1
 384 550 l 1,11,-1
 384 422 l 1,12,-1
 640 422 l 1,13,-1
 640 312 l 1,14,-1
 384 312 l 1,15,-1
 384 128 l 1,16,-1
 896 128 l 1,17,-1
 896 0 l 1,18,-1
 128 0 l 1,19,-1
 128 680 l 1,8,-1
EndSplineSet
EndChar

StartChar: Iacute
Encoding: 205 205 143
Width: 1024
GlyphClass: 2
Flags: W
LayerCount: 2
Fore
SplineSet
396 719 m 1,0,-1
 652 719 l 1,1,-1
 652 806 l 1,2,-1
 780 806 l 1,3,-1
 780 893 l 1,4,-1
 524 893 l 1,5,-1
 524 806 l 1,6,-1
 396 806 l 1,7,-1
 396 719 l 1,0,-1
256 692 m 1,8,-1
 768 692 l 1,9,-1
 768 564 l 1,10,-1
 640 564 l 1,11,-1
 640 128 l 1,12,-1
 768 128 l 1,13,-1
 768 0 l 1,14,-1
 256 0 l 1,15,-1
 256 128 l 1,16,-1
 384 128 l 1,17,-1
 384 564 l 1,18,-1
 256 564 l 1,19,-1
 256 692 l 1,8,-1
EndSplineSet
EndChar

StartChar: Ntilde
Encoding: 209 209 147
Width: 1024
GlyphClass: 2
Flags: W
LayerCount: 2
Fore
SplineSet
315.375 896.395507812 m 1,0,-1
 508.6953125 896.395507812 l 1,1,-1
 508.6953125 827.348632812 l 1,2,-1
 605.354492188 827.348632812 l 1,3,-1
 605.354492188 758.30078125 l 1,4,-1
 702.014648438 758.30078125 l 1,5,-1
 702.014648438 827.348632812 l 1,6,-1
 798.674804688 827.348632812 l 1,7,-1
 798.674804688 758.30078125 l 1,8,-1
 702.014648438 758.30078125 l 1,9,-1
 702.014648438 689.252929688 l 1,10,-1
 508.6953125 689.252929688 l 1,11,-1
 508.6953125 758.30078125 l 1,12,-1
 412.034179688 758.30078125 l 1,13,-1
 412.034179688 827.348632812 l 1,14,-1
 315.375 827.348632812 l 1,15,-1
 315.375 758.30078125 l 1,16,-1
 218.71484375 758.30078125 l 1,17,-1
 218.71484375 827.348632812 l 1,18,-1
 315.375 827.348632812 l 1,19,-1
 315.375 896.395507812 l 1,0,-1
128 672 m 1,20,-1
 384 672 l 1,21,-1
 384 544 l 1,22,-1
 512 544 l 1,23,-1
 512 425 l 1,24,-1
 640 425 l 1,25,-1
 640 672 l 1,26,-1
 896 672 l 1,27,-1
 896 0 l 1,28,-1
 640 0 l 1,29,-1
 640 103 l 1,30,-1
 512 103 l 1,31,-1
 512 231 l 1,32,-1
 384 231 l 1,33,-1
 384 0 l 1,34,-1
 128 0 l 1,35,-1
 128 672 l 1,20,-1
EndSplineSet
EndChar

StartChar: Oacute
Encoding: 211 211 149
Width: 1024
GlyphClass: 2
Flags: W
LayerCount: 2
Fore
SplineSet
396 719 m 1,0,-1
 652 719 l 1,1,-1
 652 806 l 1,2,-1
 780 806 l 1,3,-1
 780 893 l 1,4,-1
 524 893 l 1,5,-1
 524 806 l 1,6,-1
 396 806 l 1,7,-1
 396 719 l 1,0,-1
256 685 m 1,8,-1
 768 685 l 1,9,-1
 768 557 l 1,10,-1
 896 557 l 1,11,-1
 896 128 l 1,12,-1
 768 128 l 1,13,-1
 768 0 l 1,14,-1
 256 0 l 1,15,-1
 256 128 l 1,16,-1
 128 128 l 1,17,-1
 128 557 l 1,18,-1
 256 557 l 1,19,-1
 256 685 l 1,8,-1
384 557 m 1,20,-1
 384 128 l 1,21,-1
 640 128 l 1,22,-1
 640 557 l 1,23,-1
 384 557 l 1,20,-1
EndSplineSet
EndChar

StartChar: Uacute
Encoding: 218 218 156
Width: 1024
GlyphClass: 2
Flags: W
LayerCount: 2
Fore
SplineSet
382 719 m 1,0,-1
 638 719 l 1,1,-1
 638 806 l 1,2,-1
 766 806 l 1,3,-1
 766 893 l 1,4,-1
 510 893 l 1,5,-1
 510 806 l 1,6,-1
 382 806 l 1,7,-1
 382 719 l 1,0,-1
128 694 m 5,8,-1
 384 694 l 5,9,-1
 384 128 l 5,10,-1
 640 128 l 5,11,-1
 640 694 l 5,12,-1
 896 694 l 5,13,-1
 896 128 l 5,14,-1
 768 128 l 5,15,-1
 768 0 l 5,16,-1
 256 0 l 5,17,-1
 256 128 l 5,18,-1
 128 128 l 5,19,-1
 128 694 l 5,8,-1
EndSplineSet
EndChar

StartChar: Udieresis
Encoding: 220 220 158
Width: 1024
GlyphClass: 2
Flags: W
LayerCount: 2
Fore
SplineSet
128 694 m 5,0,-1
 384 694 l 5,1,-1
 384 128 l 5,2,-1
 640 128 l 5,3,-1
 640 694 l 5,4,-1
 896 694 l 5,5,-1
 896 128 l 5,6,-1
 768 128 l 5,7,-1
 768 0 l 5,8,-1
 256 0 l 5,9,-1
 256 128 l 5,10,-1
 128 128 l 5,11,-1
 128 694 l 5,0,-1
256 896 m 1,12,-1
 384 896 l 1,13,-1
 384 768 l 1,14,-1
 256 768 l 1,15,-1
 256 896 l 1,12,-1
640 896 m 1,16,-1
 768 896 l 1,17,-1
 768 768 l 1,18,-1
 640 768 l 1,19,-1
 640 896 l 1,16,-1
EndSplineSet
EndChar

StartChar: germandbls
Encoding: 223 223 161
Width: 1024
GlyphClass: 2
Flags: W
LayerCount: 2
Fore
SplineSet
256 768 m 1,0,-1
 640 768 l 1,1,-1
 640 640 l 1,2,-1
 768 640 l 1,3,-1
 768 384 l 1,4,-1
 896 384 l 1,5,-1
 896 128 l 1,6,-1
 768 128 l 1,7,-1
 768 0 l 1,8,-1
 512 0 l 1,9,-1
 512 128 l 1,10,-1
 640 128 l 1,11,-1
 640 384 l 1,12,-1
 512 384 l 1,13,-1
 512 512 l 1,14,-1
 640 512 l 1,15,-1
 640 640 l 1,16,-1
 384 640 l 1,17,-1
 384 -128 l 1,18,-1
 128 -128 l 1,19,-1
 128 640 l 1,20,-1
 256 640 l 1,21,-1
 256 768 l 1,0,-1
EndSplineSet
EndChar

StartChar: agrave
Encoding: 224 224 162
Width: 1024
GlyphClass: 2
Flags: W
LayerCount: 2
Fore
SplineSet
384 896 m 5,0,-1
 640 896 l 5,1,-1
 640 768 l 5,2,-1
 768 768 l 5,3,-1
 768 640 l 5,4,-1
 512 640 l 5,5,-1
 512 768 l 5,6,-1
 384 768 l 5,7,-1
 384 896 l 5,0,-1
384 512 m 1,8,-1
 896 512 l 1,9,-1
 896 128 l 1,10,-1
 1024 128 l 1,11,-1
 1024 0 l 1,12,-1
 768 0 l 1,13,-1
 768 128 l 1,14,-1
 640 128 l 1,15,-1
 640 0 l 1,16,-1
 384 0 l 1,17,-1
 384 128 l 1,18,-1
 256 128 l 1,19,-1
 256 384 l 1,20,-1
 384 384 l 1,21,-1
 384 512 l 1,8,-1
512 384 m 1,22,-1
 512 128 l 1,23,-1
 640 128 l 1,24,-1
 640 384 l 1,25,-1
 512 384 l 1,22,-1
EndSplineSet
EndChar

StartChar: aacute
Encoding: 225 225 163
Width: 1024
GlyphClass: 2
Flags: W
LayerCount: 2
Fore
SplineSet
524 637 m 5,0,-1
 780 637 l 5,1,-1
 780 765 l 5,2,-1
 908 765 l 5,3,-1
 908 893 l 5,4,-1
 652 893 l 5,5,-1
 652 765 l 5,6,-1
 524 765 l 5,7,-1
 524 637 l 5,0,-1
384 512 m 1,8,-1
 896 512 l 1,9,-1
 896 128 l 1,10,-1
 1024 128 l 1,11,-1
 1024 0 l 1,12,-1
 768 0 l 1,13,-1
 768 128 l 1,14,-1
 640 128 l 1,15,-1
 640 0 l 1,16,-1
 384 0 l 1,17,-1
 384 128 l 1,18,-1
 256 128 l 1,19,-1
 256 384 l 1,20,-1
 384 384 l 1,21,-1
 384 512 l 1,8,-1
512 384 m 1,22,-1
 512 128 l 1,23,-1
 640 128 l 1,24,-1
 640 384 l 1,25,-1
 512 384 l 1,22,-1
EndSplineSet
EndChar

StartChar: acircumflex
Encoding: 226 226 164
Width: 1024
GlyphClass: 2
Flags: W
LayerCount: 2
Fore
SplineSet
512 896 m 5,0,-1
 896 896 l 5,1,-1
 896 768 l 5,2,-1
 1024 768 l 5,3,-1
 1024 640 l 5,4,-1
 768 640 l 5,5,-1
 768 768 l 5,6,-1
 640 768 l 5,7,-1
 640 640 l 5,8,-1
 384 640 l 5,9,-1
 384 768 l 5,10,-1
 512 768 l 5,11,-1
 512 896 l 5,0,-1
384 512 m 5,12,-1
 896 512 l 5,13,-1
 896 128 l 5,14,-1
 1024 128 l 5,15,-1
 1024 0 l 5,16,-1
 768 0 l 5,17,-1
 768 128 l 5,18,-1
 640 128 l 5,19,-1
 640 0 l 5,20,-1
 384 0 l 5,21,-1
 384 128 l 5,22,-1
 256 128 l 5,23,-1
 256 384 l 5,24,-1
 384 384 l 5,25,-1
 384 512 l 5,12,-1
512 384 m 5,26,-1
 512 128 l 5,27,-1
 640 128 l 5,28,-1
 640 384 l 5,29,-1
 512 384 l 5,26,-1
EndSplineSet
EndChar

StartChar: adieresis
Encoding: 228 228 166
Width: 1024
GlyphClass: 2
Flags: W
LayerCount: 2
Fore
SplineSet
384 896 m 1,0,-1
 512 896 l 1,1,-1
 512 768 l 1,2,-1
 384 768 l 1,3,-1
 384 896 l 1,0,-1
640 896 m 1,4,-1
 768 896 l 1,5,-1
 768 768 l 1,6,-1
 640 768 l 1,7,-1
 640 896 l 1,4,-1
256 640 m 1,8,-1
 896 640 l 1,9,-1
 896 128 l 1,10,-1
 1024 128 l 1,11,-1
 1024 0 l 1,12,-1
 768 0 l 1,13,-1
 768 128 l 1,14,-1
 640 128 l 1,15,-1
 640 0 l 1,16,-1
 256 0 l 1,17,-1
 256 128 l 1,18,-1
 128 128 l 1,19,-1
 128 512 l 1,20,-1
 256 512 l 1,21,-1
 256 640 l 1,8,-1
384 512 m 1,22,-1
 384 128 l 1,23,-1
 640 128 l 1,24,-1
 640 512 l 1,25,-1
 384 512 l 1,22,-1
EndSplineSet
EndChar

StartChar: ccedilla
Encoding: 231 231 169
Width: 1024
GlyphClass: 2
Flags: W
LayerCount: 2
Fore
SplineSet
256 640 m 1,0,-1
 768 640 l 1,1,-1
 768 512 l 1,2,-1
 384 512 l 1,3,-1
 384 256 l 1,4,-1
 768 256 l 1,5,-1
 768 128 l 1,6,-1
 640 128 l 1,7,-1
 640 -128 l 1,8,-1
 384 -128 l 1,9,-1
 384 0 l 1,10,-1
 512 0 l 1,11,-1
 512 128 l 1,12,-1
 256 128 l 1,13,-1
 256 256 l 1,14,-1
 128 256 l 1,15,-1
 128 512 l 1,16,-1
 256 512 l 1,17,-1
 256 640 l 1,0,-1
EndSplineSet
EndChar

StartChar: egrave
Encoding: 232 232 170
Width: 1024
GlyphClass: 2
Flags: W
LayerCount: 2
Fore
SplineSet
256 896 m 1,0,-1
 512 896 l 1,1,-1
 512 768 l 1,2,-1
 640 768 l 1,3,-1
 640 640 l 1,4,-1
 384 640 l 1,5,-1
 384 768 l 1,6,-1
 256 768 l 1,7,-1
 256 896 l 1,0,-1
256 512 m 1,8,-1
 640 512 l 1,9,-1
 640 384 l 1,10,-1
 768 384 l 1,11,-1
 768 256 l 1,12,-1
 512 256 l 1,13,-1
 512 128 l 1,14,-1
 896 128 l 1,15,-1
 896 0 l 1,16,-1
 256 0 l 1,17,-1
 256 128 l 1,18,-1
 128 128 l 1,19,-1
 128 384 l 1,20,-1
 256 384 l 1,21,-1
 256 512 l 1,8,-1
384 384 m 1,22,-1
 384 256 l 1,23,-1
 512 256 l 1,24,-1
 512 384 l 1,25,-1
 384 384 l 1,22,-1
EndSplineSet
EndChar

StartChar: eacute
Encoding: 233 233 171
Width: 1024
GlyphClass: 2
Flags: W
LayerCount: 2
Fore
SplineSet
384 896 m 1,0,-1
 640 896 l 1,1,-1
 640 768 l 1,2,-1
 512 768 l 1,3,-1
 512 640 l 1,4,-1
 256 640 l 1,5,-1
 256 768 l 1,6,-1
 384 768 l 1,7,-1
 384 896 l 1,0,-1
256 512 m 1,8,-1
 640 512 l 1,9,-1
 640 384 l 1,10,-1
 768 384 l 1,11,-1
 768 256 l 1,12,-1
 512 256 l 1,13,-1
 512 128 l 1,14,-1
 896 128 l 1,15,-1
 896 0 l 1,16,-1
 256 0 l 1,17,-1
 256 128 l 1,18,-1
 128 128 l 1,19,-1
 128 384 l 1,20,-1
 256 384 l 1,21,-1
 256 512 l 1,8,-1
384 384 m 1,22,-1
 384 256 l 1,23,-1
 512 256 l 1,24,-1
 512 384 l 1,25,-1
 384 384 l 1,22,-1
EndSplineSet
EndChar

StartChar: ecircumflex
Encoding: 234 234 172
Width: 1024
GlyphClass: 2
Flags: W
LayerCount: 2
Fore
SplineSet
256 896 m 1,0,-1
 640 896 l 1,1,-1
 640 768 l 1,2,-1
 768 768 l 1,3,-1
 768 640 l 1,4,-1
 512 640 l 1,5,-1
 512 768 l 1,6,-1
 384 768 l 1,7,-1
 384 640 l 1,8,-1
 128 640 l 1,9,-1
 128 768 l 1,10,-1
 256 768 l 1,11,-1
 256 896 l 1,0,-1
256 512 m 1,12,-1
 640 512 l 1,13,-1
 640 384 l 1,14,-1
 768 384 l 1,15,-1
 768 256 l 1,16,-1
 512 256 l 1,17,-1
 512 128 l 1,18,-1
 896 128 l 1,19,-1
 896 0 l 1,20,-1
 256 0 l 1,21,-1
 256 128 l 1,22,-1
 128 128 l 1,23,-1
 128 384 l 1,24,-1
 256 384 l 1,25,-1
 256 512 l 1,12,-1
384 384 m 1,26,-1
 384 256 l 1,27,-1
 512 256 l 1,28,-1
 512 384 l 1,29,-1
 384 384 l 1,26,-1
EndSplineSet
EndChar

StartChar: iacute
Encoding: 237 237 175
Width: 1024
GlyphClass: 2
Flags: W
LayerCount: 2
Fore
SplineSet
396 637 m 1,0,-1
 652 637 l 1,1,-1
 652 765 l 1,2,-1
 780 765 l 1,3,-1
 780 893 l 1,4,-1
 524 893 l 1,5,-1
 524 765 l 1,6,-1
 396 765 l 1,7,-1
 396 637 l 1,0,-1
384 512 m 1,8,-1
 640 512 l 1,9,-1
 640 0 l 1,10,-1
 384 0 l 1,11,-1
 384 512 l 1,8,-1
EndSplineSet
EndChar

StartChar: icircumflex
Encoding: 238 238 176
Width: 1024
GlyphClass: 2
Flags: W
LayerCount: 2
Fore
SplineSet
384 896 m 1,0,-1
 768 896 l 1,1,-1
 768 768 l 1,2,-1
 896 768 l 1,3,-1
 896 640 l 1,4,-1
 640 640 l 1,5,-1
 640 768 l 1,6,-1
 512 768 l 1,7,-1
 512 640 l 1,8,-1
 256 640 l 1,9,-1
 256 768 l 1,10,-1
 384 768 l 1,11,-1
 384 896 l 1,0,-1
384 512 m 5,12,-1
 640 512 l 5,13,-1
 640 0 l 5,14,-1
 384 0 l 5,15,-1
 384 512 l 5,12,-1
EndSplineSet
EndChar

StartChar: idieresis
Encoding: 239 239 177
Width: 1024
GlyphClass: 2
Flags: W
LayerCount: 2
Fore
SplineSet
256 896 m 1,0,-1
 384 896 l 1,1,-1
 384 768 l 1,2,-1
 256 768 l 1,3,-1
 256 896 l 1,0,-1
640 896 m 1,4,-1
 768 896 l 1,5,-1
 768 768 l 1,6,-1
 640 768 l 1,7,-1
 640 896 l 1,4,-1
384 640 m 1,8,-1
 640 640 l 1,9,-1
 640 0 l 1,10,-1
 384 0 l 1,11,-1
 384 640 l 1,8,-1
EndSplineSet
EndChar

StartChar: ntilde
Encoding: 241 241 179
Width: 1024
GlyphClass: 2
Flags: W
LayerCount: 2
Fore
SplineSet
315.375 894.395507812 m 5,0,-1
 508.6953125 894.395507812 l 5,1,-1
 508.6953125 825.348632812 l 5,2,-1
 605.354492188 825.348632812 l 5,3,-1
 605.354492188 756.30078125 l 5,4,-1
 702.014648438 756.30078125 l 5,5,-1
 702.014648438 825.348632812 l 5,6,-1
 798.674804688 825.348632812 l 5,7,-1
 798.674804688 756.30078125 l 5,8,-1
 702.014648438 756.30078125 l 5,9,-1
 702.014648438 687.252929688 l 5,10,-1
 508.6953125 687.252929688 l 5,11,-1
 508.6953125 756.30078125 l 5,12,-1
 412.034179688 756.30078125 l 5,13,-1
 412.034179688 825.348632812 l 5,14,-1
 315.375 825.348632812 l 5,15,-1
 315.375 756.30078125 l 5,16,-1
 218.71484375 756.30078125 l 5,17,-1
 218.71484375 825.348632812 l 5,18,-1
 315.375 825.348632812 l 5,19,-1
 315.375 894.395507812 l 5,0,-1
128 640 m 1,20,-1
 768 640 l 1,21,-1
 768 512 l 1,22,-1
 896 512 l 1,23,-1
 896 0 l 1,24,-1
 640 0 l 1,25,-1
 640 512 l 1,26,-1
 384 512 l 1,27,-1
 384 0 l 1,28,-1
 128 0 l 1,29,-1
 128 640 l 1,20,-1
EndSplineSet
EndChar

StartChar: oacute
Encoding: 243 243 181
Width: 1024
GlyphClass: 2
Flags: W
LayerCount: 2
Fore
SplineSet
256 512 m 1,0,-1
 768 512 l 1,1,-1
 768 384 l 1,2,-1
 896 384 l 1,3,-1
 896 128 l 1,4,-1
 768 128 l 1,5,-1
 768 0 l 1,6,-1
 256 0 l 1,7,-1
 256 128 l 1,8,-1
 128 128 l 1,9,-1
 128 384 l 1,10,-1
 256 384 l 1,11,-1
 256 512 l 1,0,-1
384 384 m 1,12,-1
 384 128 l 1,13,-1
 640 128 l 1,14,-1
 640 384 l 1,15,-1
 384 384 l 1,12,-1
524 637 m 5,16,-1
 780 637 l 5,17,-1
 780 765 l 5,18,-1
 908 765 l 5,19,-1
 908 893 l 5,20,-1
 652 893 l 5,21,-1
 652 765 l 5,22,-1
 524 765 l 5,23,-1
 524 637 l 5,16,-1
EndSplineSet
EndChar

StartChar: ocircumflex
Encoding: 244 244 182
Width: 1024
GlyphClass: 2
Flags: W
LayerCount: 2
Fore
SplineSet
384 896 m 1,0,-1
 768 896 l 1,1,-1
 768 768 l 1,2,-1
 896 768 l 1,3,-1
 896 640 l 1,4,-1
 640 640 l 1,5,-1
 640 768 l 1,6,-1
 512 768 l 1,7,-1
 512 640 l 1,8,-1
 256 640 l 1,9,-1
 256 768 l 1,10,-1
 384 768 l 1,11,-1
 384 896 l 1,0,-1
256 512 m 5,12,-1
 768 512 l 5,13,-1
 768 384 l 5,14,-1
 896 384 l 5,15,-1
 896 128 l 5,16,-1
 768 128 l 5,17,-1
 768 0 l 5,18,-1
 256 0 l 5,19,-1
 256 128 l 5,20,-1
 128 128 l 5,21,-1
 128 384 l 5,22,-1
 256 384 l 5,23,-1
 256 512 l 5,12,-1
384 384 m 5,24,-1
 384 128 l 5,25,-1
 640 128 l 5,26,-1
 640 384 l 5,27,-1
 384 384 l 5,24,-1
EndSplineSet
EndChar

StartChar: odieresis
Encoding: 246 246 184
Width: 1024
GlyphClass: 2
Flags: W
LayerCount: 2
Fore
SplineSet
256 896 m 5,0,-1
 384 896 l 5,1,-1
 384 768 l 5,2,-1
 256 768 l 5,3,-1
 256 896 l 5,0,-1
640 896 m 5,4,-1
 768 896 l 5,5,-1
 768 768 l 5,6,-1
 640 768 l 5,7,-1
 640 896 l 5,4,-1
256 640 m 1,8,-1
 768 640 l 1,9,-1
 768 512 l 1,10,-1
 896 512 l 1,11,-1
 896 128 l 1,12,-1
 768 128 l 1,13,-1
 768 0 l 1,14,-1
 256 0 l 1,15,-1
 256 128 l 1,16,-1
 128 128 l 1,17,-1
 128 512 l 1,18,-1
 256 512 l 1,19,-1
 256 640 l 1,8,-1
384 512 m 1,20,-1
 384 128 l 1,21,-1
 640 128 l 1,22,-1
 640 512 l 1,23,-1
 384 512 l 1,20,-1
EndSplineSet
EndChar

StartChar: ugrave
Encoding: 249 249 187
Width: 1024
GlyphClass: 2
Flags: W
LayerCount: 2
Fore
SplineSet
256 896 m 1,0,-1
 512 896 l 1,1,-1
 512 768 l 1,2,-1
 640 768 l 1,3,-1
 640 640 l 1,4,-1
 384 640 l 1,5,-1
 384 768 l 1,6,-1
 256 768 l 1,7,-1
 256 896 l 1,0,-1
128 512 m 1,8,-1
 384 512 l 1,9,-1
 384 128 l 1,10,-1
 640 128 l 1,11,-1
 640 512 l 1,12,-1
 896 512 l 1,13,-1
 896 128 l 1,14,-1
 1024 128 l 1,15,-1
 1024 0 l 1,16,-1
 768 0 l 1,17,-1
 768 128 l 1,18,-1
 640 128 l 1,19,-1
 640 0 l 1,20,-1
 256 0 l 1,21,-1
 256 128 l 1,22,-1
 128 128 l 1,23,-1
 128 512 l 1,8,-1
EndSplineSet
EndChar

StartChar: uacute
Encoding: 250 250 188
Width: 1024
GlyphClass: 2
Flags: W
LayerCount: 2
Fore
SplineSet
128 512 m 5,0,-1
 384 512 l 5,1,-1
 384 128 l 5,2,-1
 640 128 l 5,3,-1
 640 512 l 5,4,-1
 896 512 l 5,5,-1
 896 128 l 5,6,-1
 1024 128 l 5,7,-1
 1024 0 l 5,8,-1
 768 0 l 5,9,-1
 768 128 l 5,10,-1
 640 128 l 5,11,-1
 640 0 l 5,12,-1
 256 0 l 5,13,-1
 256 128 l 5,14,-1
 128 128 l 5,15,-1
 128 512 l 5,0,-1
524 637 m 1,16,-1
 780 637 l 1,17,-1
 780 765 l 1,18,-1
 908 765 l 1,19,-1
 908 893 l 1,20,-1
 652 893 l 1,21,-1
 652 765 l 1,22,-1
 524 765 l 1,23,-1
 524 637 l 1,16,-1
EndSplineSet
EndChar

StartChar: ucircumflex
Encoding: 251 251 189
Width: 1024
GlyphClass: 2
Flags: W
LayerCount: 2
Fore
SplineSet
384 896 m 1,0,-1
 768 896 l 1,1,-1
 768 768 l 1,2,-1
 896 768 l 1,3,-1
 896 640 l 1,4,-1
 640 640 l 1,5,-1
 640 768 l 1,6,-1
 512 768 l 1,7,-1
 512 640 l 1,8,-1
 256 640 l 1,9,-1
 256 768 l 1,10,-1
 384 768 l 1,11,-1
 384 896 l 1,0,-1
128 512 m 5,12,-1
 384 512 l 5,13,-1
 384 128 l 5,14,-1
 640 128 l 5,15,-1
 640 512 l 5,16,-1
 896 512 l 5,17,-1
 896 128 l 5,18,-1
 1024 128 l 5,19,-1
 1024 0 l 5,20,-1
 768 0 l 5,21,-1
 768 128 l 5,22,-1
 640 128 l 5,23,-1
 640 0 l 5,24,-1
 256 0 l 5,25,-1
 256 128 l 5,26,-1
 128 128 l 5,27,-1
 128 512 l 5,12,-1
EndSplineSet
EndChar

StartChar: udieresis
Encoding: 252 252 190
Width: 1024
GlyphClass: 2
Flags: W
LayerCount: 2
Fore
SplineSet
256 896 m 1,0,-1
 384 896 l 1,1,-1
 384 768 l 1,2,-1
 256 768 l 1,3,-1
 256 896 l 1,0,-1
640 896 m 1,4,-1
 768 896 l 1,5,-1
 768 768 l 1,6,-1
 640 768 l 1,7,-1
 640 896 l 1,4,-1
128 640 m 5,8,-1
 384 640 l 5,9,-1
 384 128 l 1,10,-1
 640 128 l 1,11,-1
 640 640 l 5,12,-1
 896 640 l 5,13,-1
 896 0 l 1,14,-1
 256 0 l 1,15,-1
 256 128 l 1,16,-1
 128 128 l 1,17,-1
 128 640 l 5,8,-1
EndSplineSet
EndChar

StartChar: trademark
Encoding: 8482 8482 218
Width: 1024
GlyphClass: 2
Flags: W
LayerCount: 2
Fore
SplineSet
0 896 m 1,0,-1
 384 896 l 1,1,-1
 384 768 l 1,2,-1
 256 768 l 1,3,-1
 256 512 l 1,4,-1
 128 512 l 1,5,-1
 128 768 l 1,6,-1
 0 768 l 1,7,-1
 0 896 l 1,0,-1
384 640 m 1,8,-1
 1024 640 l 1,9,-1
 1024 256 l 1,10,-1
 896 256 l 1,11,-1
 896 512 l 1,12,-1
 768 512 l 1,13,-1
 768 384 l 1,14,-1
 640 384 l 1,15,-1
 640 512 l 1,16,-1
 512 512 l 1,17,-1
 512 256 l 1,18,-1
 384 256 l 1,19,-1
 384 640 l 1,8,-1
EndSplineSet
EndChar
